<svg width="87" height="32" viewBox="0 0 87 32" fill="none" xmlns="http://www.w3.org/2000/svg">
<path d="M56.7842 25.6278C54.9961 22.895 53.5757 19.9027 51.6968 17.2304H49.1045C49.0678 17.2845 48.9424 17.3623 48.9424 17.3926V31.4027C48.9424 31.4135 49.0937 31.5648 49.1045 31.5648H51.1563C51.1671 31.5648 51.3185 31.4135 51.3185 31.4027V22.3502C51.3185 22.0475 52.1055 21.9675 52.2287 22.4107L57.6295 31.4632C57.8371 31.6124 60.0316 31.6254 60.2824 31.5086C60.3342 31.4848 60.5007 31.314 60.5007 31.2946V17.5007C60.5007 17.1374 58.4273 17.1504 58.2284 17.2801C58.0771 17.3796 58.0273 17.8444 58.0122 18.0347C57.8025 20.5492 58.3473 23.7187 58.0208 26.1273C57.8587 27.3272 57.0436 26.0256 56.782 25.6278H56.7842Z" fill="#525252"/>
<path d="M40.0263 19.2755L47.0292 19.2561C47.5265 19.1242 47.3924 17.2302 47.0508 17.2302H37.1119C37.0773 17.2843 36.9497 17.3621 36.9497 17.3924V31.4025C36.9497 31.4133 37.1011 31.5646 37.1119 31.5646H47.3751C47.3859 31.5646 47.5373 31.4133 47.5373 31.4025V29.7853C47.5373 29.6664 47.2735 29.6318 47.1654 29.6188C45.012 29.3658 42.117 29.9474 40.0349 29.6188C39.6674 29.5604 39.369 29.301 39.3215 28.9291C39.2523 28.3972 39.2371 26.0752 39.3301 25.5866C39.4252 25.0742 40.1366 25.0201 40.5668 24.9877C42.3765 24.8493 44.3569 25.1023 46.186 24.9877C46.7589 24.9034 46.7676 23.258 46.186 23.1607C44.2358 23.018 42.0543 23.338 40.1344 23.1607C39.836 23.1326 39.5507 23.1153 39.408 22.8062C39.2869 22.5446 39.2653 19.8441 39.382 19.5998C39.4707 19.4117 39.8209 19.2777 40.0285 19.2734L40.0263 19.2755Z" fill="#525252"/>
<path d="M78.7075 19.2799H86.0542C86.3872 18.7264 86.3872 17.7859 86.0542 17.2324H76.1152C76.0677 17.3038 75.845 17.4659 75.845 17.5027V31.4047C75.845 31.4155 75.9963 31.5668 76.0071 31.5668H86.3785C86.3893 31.5668 86.5407 31.4155 86.5407 31.4047V29.7875C86.5407 29.6686 86.2769 29.634 86.1688 29.621C84.0046 29.368 81.3236 29.8675 79.1399 29.6275C78.9367 29.6059 78.5519 29.5302 78.4286 29.368C78.113 28.9551 78.1216 25.4915 78.4805 25.1996C79.1118 24.6893 84.0867 25.165 85.1894 24.9942C85.6326 24.9726 85.5331 23.2581 85.2823 23.1759L79.0275 23.1629C78.7465 23.1456 78.4632 23.0246 78.3551 22.7565C78.1497 22.2484 78.0697 19.2799 78.7054 19.2799H78.7075Z" fill="#525252"/>
<path d="M66.3426 19.6625C67.8906 18.5642 70.2559 18.7199 71.4126 20.3025C71.5748 20.5252 71.9704 21.5414 72.1153 21.5414H74.2752C74.6817 21.5414 74.1974 20.2074 74.0936 19.9977C72.2083 16.1319 66.1848 15.8119 63.5882 19.0723C61.6293 21.5306 61.4672 25.6449 62.6888 28.4643C64.5589 32.7819 71.7153 33.3419 73.9141 29.0502C74.0806 28.7259 74.7292 27.18 74.273 27.0373C73.8147 26.8946 72.6601 27.1432 72.1131 27.0373C71.7261 27.4049 71.7434 27.9259 71.4105 28.3843C69.9122 30.4404 66.8961 30.3409 65.4216 28.3237C63.9298 26.2849 64.1481 21.2171 66.3383 19.6625H66.3426Z" fill="#525252"/>
<path d="M16.317 19.3361L23.6939 19.2582C24.148 19.1415 24.0399 17.5761 23.8885 17.3837C23.5815 16.9902 15.0349 17.3707 13.8825 17.2302C13.5452 17.2843 13.5258 17.7534 13.502 18.0367C13.1604 22.1835 13.7701 26.7843 13.502 30.9787C13.4739 31.3203 13.6274 31.569 13.9885 31.5711C17.0889 31.2922 20.8033 31.9257 23.8301 31.5711C23.9577 31.556 24.1588 31.5452 24.202 31.4046C24.2755 31.1668 24.202 30.142 24.202 29.7874C24.202 29.6685 23.9382 29.6339 23.8301 29.6209C21.6659 29.368 18.985 29.8674 16.8013 29.6274C16.3732 29.5799 16.0489 29.5085 15.9862 29.0393C15.9322 28.6372 15.9473 25.6514 16.0467 25.4266C16.1981 25.0828 16.8791 25.0158 17.2294 24.9898C19.039 24.8515 21.0238 25.1022 22.8529 24.9941C23.361 24.9293 23.2356 23.2732 22.9459 23.1759L16.2759 23.0418C16.1959 22.9878 16.0878 22.9251 16.0467 22.8386C15.9473 22.6267 15.9451 19.842 16.0489 19.6085C16.0943 19.5069 16.2284 19.4117 16.3192 19.3382L16.317 19.3361Z" fill="#525252"/>
<path d="M10.8625 19.4851C9.86252 18.0283 8.42801 17.26 6.71184 17.26H0.0676922C0.0502248 17.2751 0.0305719 17.2902 0.0109211 17.3075C0.00655426 17.3118 0.00436684 17.314 0 17.3161V31.5429C0.015284 31.5602 0.0349347 31.5796 0.0545855 31.5969H6.93674C8.55902 31.5969 9.93021 30.8351 10.8953 29.3891C11.7686 28.0834 12.249 26.3309 12.249 24.4511C12.249 22.5713 11.7555 20.7887 10.8603 19.4851H10.8625ZM7.24241 29.3826C6.74023 29.5747 5.50223 29.6416 4.51314 29.6416C3.99785 29.6416 3.54151 29.6243 3.26203 29.5898C2.93234 29.5531 2.69653 29.3804 2.54369 29.0697L2.52622 29.0351V28.992L2.49347 20.0268C2.49565 19.7009 2.79478 19.3405 3.11575 19.2693C3.39304 19.2089 4.20309 19.2002 4.65943 19.2002C5.38651 19.2002 6.1114 19.2197 6.39088 19.2499C8.36469 19.4592 9.47387 21.298 9.66819 22.9166C9.81885 24.1576 10.083 28.2905 7.24023 29.3826H7.24241Z" fill="#525252"/>
<path d="M28.5717 19.1653C30.3511 18.9318 32.6666 19.3209 34.5238 19.1739C34.8373 19.1501 35.4838 19.1285 35.5465 18.7934C35.5897 18.5664 35.5854 17.3751 35.4449 17.2778L25.7826 17.2454C25.5535 17.321 25.5124 17.8118 25.4929 18.0345C25.1513 22.1684 25.7481 26.7757 25.5081 30.9593C25.5535 31.143 25.5837 31.4803 25.7826 31.5473C26.0529 31.6381 28.0031 31.7181 27.9793 31.182C28.1458 29.5323 27.7717 27.5 27.9771 25.8979C28.0247 25.5347 28.2128 25.3509 28.5717 25.3055C30.3078 25.0828 32.511 25.4849 34.3011 25.3077C34.8935 25.2493 34.8179 23.4094 34.3898 23.284L28.2474 23.1607C28.1825 23.0916 28.0744 23.0202 28.0398 22.9359C27.9361 22.6851 27.9317 19.736 28.0398 19.4917C28.1328 19.282 28.362 19.1869 28.5717 19.1609V19.1653Z" fill="#525252"/>
<path d="M58.6092 15.2773C61.7853 15.0936 63.5084 13.2904 63.7398 10.1576L63.7138 0.692115C63.5906 0.274838 62.2285 0.356996 61.8393 0.393751C61.582 0.419696 61.3766 0.400237 61.2729 0.692115L61.2556 10.4819C60.9832 13.6558 55.9802 14.2331 55.1261 10.9857C54.5921 8.95981 54.8429 4.95136 54.8732 2.7158C54.8775 2.43473 55.1521 0.402399 54.7154 0.402399H52.7695C52.6074 0.529961 52.4863 0.664008 52.4949 0.882375C53.1327 6.31345 49.8486 15.7897 58.6092 15.2795V15.2773Z" fill="#525252"/>
<path d="M40.2922 12.739V14.5702C40.2922 14.5811 40.4436 14.7324 40.4544 14.7324H51.2582C51.4722 14.7324 51.5522 13.0179 51.243 12.9163C49.0637 12.7282 46.5946 13.1173 44.452 12.9011C43.3602 12.7909 43.7191 12.2677 44.1407 11.6212C46.0952 8.62244 49.1091 5.77285 51.0355 2.76543C51.0874 2.68328 51.3122 2.31573 51.3122 2.28762V0.5623C51.3122 0.55149 51.1609 0.400146 51.1501 0.400146H40.7787C40.4393 0.400146 40.3571 2.08655 40.6922 2.21195L47.4789 2.33951C47.8465 2.36545 47.8075 2.92975 47.6929 3.20001C46.9643 4.42589 40.2944 12.1358 40.2944 12.739H40.2922Z" fill="#525252"/>
<path d="M4.53623 2.83229C6.05183 1.81397 9.07654 1.81181 10.1943 3.4247C10.3954 3.71441 10.4992 4.30682 10.7975 4.4387C10.9878 4.52302 12.6893 4.54464 12.8882 4.47978C13.6039 4.24628 12.3953 2.41934 12.0948 2.06693C9.52192 -0.936165 3.48114 -0.639964 1.35152 2.78041C-0.778101 6.20077 -0.544599 12.0491 3.16116 14.3193C5.31024 15.636 8.35009 15.69 10.3089 13.9777C10.5921 13.729 10.8192 13.0026 11.338 13.275C11.7445 13.4891 11.5088 14.5009 11.8764 14.6804C12.1402 14.8101 13.1844 14.8101 13.2817 14.4641V7.56719C13.2817 7.55638 13.1304 7.40504 13.1196 7.40504H7.82471C7.59337 7.40504 7.58688 9.06766 7.76417 9.1909C8.42144 9.64709 11.2256 8.44283 10.9878 10.1271C10.6224 12.7021 7.6431 13.6253 5.44213 12.9075C1.83366 11.7291 1.62178 4.79112 4.53623 2.83229Z" fill="#525252"/>
<path d="M68.4293 2.33518C70.2151 2.10384 72.522 2.49301 74.3814 2.34383C74.5781 2.3287 75.2786 2.24005 75.3565 2.13195C75.4192 1.8725 75.497 0.400146 75.2419 0.400146H65.6272C65.5905 0.454198 65.4651 0.532032 65.4651 0.5623V14.5724C65.4651 14.5832 65.6164 14.7346 65.6272 14.7346H67.679C67.6898 14.7346 67.8412 14.5832 67.8412 14.5724V8.96837C67.8412 8.75648 68.2282 8.52514 68.4422 8.49055C70.0897 8.22678 72.3772 8.70892 74.0593 8.49055C74.2106 8.47109 74.3382 8.46461 74.4419 8.33488C74.5933 8.14462 74.7014 6.57497 74.2473 6.46038C72.4377 6.2658 70.3124 6.64632 68.5417 6.44092C68.0682 6.38687 67.8952 6.21823 67.839 5.74042C67.7785 5.22153 67.7569 3.30162 67.8433 2.83029C67.8996 2.52977 68.146 2.3741 68.4293 2.33735V2.33518Z" fill="#525252"/>
<path d="M25.759 0.400223C25.4434 0.311579 24.2521 0.400223 23.8153 0.400223C23.8045 0.400223 23.6532 0.549405 23.6532 0.562377V10.1532C23.6532 14.0903 17.3162 14.1509 17.2795 10.1532L17.2557 0.694263C17.1368 0.294283 15.5563 0.328876 15.1693 0.402385C14.8342 0.465085 14.8126 1.10938 14.7888 1.42287C14.5985 3.84005 14.6309 7.72094 14.7888 10.1597C15.0244 13.8417 17.3811 15.5324 21.009 15.2773C28.5092 14.7498 25.3504 5.80968 26.0336 0.880199C26.0574 0.728856 25.8866 0.436978 25.759 0.400223Z" fill="#525252"/>
<path d="M38.329 9.20187C38.0739 8.79756 37.2264 8.36083 37.261 8.00409C37.2912 7.69059 38.6512 6.80415 38.9409 6.22039C40.2792 3.54161 38.3852 0.400146 35.3757 0.400146H27.8128C27.7782 0.454198 27.6506 0.532032 27.6506 0.5623V14.5724C27.6506 14.5832 27.802 14.7346 27.8128 14.7346H29.8646C29.8754 14.7346 30.0267 14.5832 30.0267 14.5724V9.40078C30.0267 9.32943 30.3748 9.05269 30.5154 9.02674C31.1099 8.91431 34.3876 8.96836 34.9476 9.12619C35.8059 9.36834 36.2232 10.2418 36.3529 11.0656C36.4394 11.6147 36.2318 14.7346 36.8869 14.7346H38.9387C39.0057 14.7346 39.0944 14.5746 39.0857 14.4838C39.062 14.2524 38.8155 13.7789 38.7787 13.3854C38.6555 12.0428 39.0922 10.4105 38.3269 9.20187H38.329ZM34.7703 6.78253C33.4644 6.91009 31.9466 6.67659 30.617 6.78253C30.4872 6.77172 30.3467 6.70469 30.2581 6.61605C30.1651 6.52524 30.1067 6.39336 30.0894 6.26364C30.0116 5.63015 30.0051 3.56323 30.0894 2.94056C30.1348 2.60977 30.4462 2.44977 30.7575 2.42167C31.6677 2.33951 34.3573 2.33302 35.1551 2.59679C37.2004 3.27135 36.7421 6.58794 34.7703 6.78253Z" fill="#525252"/>
</svg>
