<svg width="238" height="22" viewBox="0 0 238 22" fill="none" xmlns="http://www.w3.org/2000/svg">
<path d="M195.346 12.9991C192.82 9.13906 190.814 4.9125 188.16 1.13792H184.499C184.447 1.21427 184.27 1.3242 184.27 1.36696V21.156C184.27 21.1713 184.483 21.3851 184.499 21.3851H187.397C187.412 21.3851 187.626 21.1713 187.626 21.156V8.36948C187.626 7.94194 188.737 7.82895 188.911 8.45499L196.54 21.2415C196.833 21.4523 199.933 21.4706 200.287 21.3057C200.36 21.2721 200.596 21.0308 200.596 21.0033V1.51965C200.596 1.0066 197.667 1.02493 197.386 1.20816C197.172 1.34864 197.102 2.00522 197.081 2.27396C196.784 5.82561 197.554 10.3026 197.093 13.7046C196.864 15.3995 195.712 13.5611 195.343 12.9991H195.346Z" fill="#525252"/>
<path d="M171.674 4.02684L181.565 3.99935C182.268 3.81307 182.078 1.13788 181.596 1.13788H167.557C167.508 1.21423 167.328 1.32416 167.328 1.36692V21.156C167.328 21.1713 167.542 21.385 167.557 21.385H182.054C182.069 21.385 182.283 21.1713 182.283 21.156V18.8717C182.283 18.7037 181.91 18.6549 181.758 18.6366C178.716 18.2792 174.627 19.1007 171.686 18.6366C171.167 18.5541 170.745 18.1876 170.678 17.6624C170.58 16.9111 170.559 13.6313 170.69 12.9411C170.825 12.2173 171.83 12.141 172.437 12.0952C174.993 11.8997 177.791 12.257 180.374 12.0952C181.184 11.9761 181.196 9.65207 180.374 9.51464C177.62 9.31309 174.538 9.76506 171.826 9.51464C171.405 9.47494 171.002 9.45051 170.8 9.01381C170.629 8.64429 170.599 4.83001 170.764 4.48492C170.889 4.21923 171.384 4.02989 171.677 4.02379L171.674 4.02684Z" fill="#525252"/>
<path d="M226.311 4.03301H236.688C237.158 3.25122 237.158 1.92278 236.688 1.14099H222.649C222.582 1.24177 222.268 1.47081 222.268 1.52273V21.1591C222.268 21.1744 222.481 21.3882 222.497 21.3882H237.146C237.161 21.3882 237.375 21.1744 237.375 21.1591V18.8748C237.375 18.7069 237.003 18.658 236.85 18.6397C233.793 18.2824 230.006 18.9878 226.922 18.6488C226.635 18.6183 226.091 18.5114 225.917 18.2824C225.471 17.6991 225.483 12.8068 225.99 12.3945C226.882 11.6738 233.909 12.3456 235.466 12.1044C236.092 12.0738 235.952 9.65213 235.598 9.53608L226.763 9.51776C226.366 9.49333 225.966 9.32231 225.813 8.94363C225.523 8.22597 225.41 4.03301 226.308 4.03301H226.311Z" fill="#525252"/>
<path d="M208.846 4.5736C211.032 3.02224 214.373 3.24212 216.007 5.47755C216.236 5.7921 216.795 7.22742 216.999 7.22742H220.05C220.624 7.22742 219.94 5.34318 219.794 5.04695C217.131 -0.413366 208.623 -0.865339 204.955 3.7399C202.188 7.21215 201.959 13.0237 203.685 17.0059C206.326 23.1045 216.434 23.8954 219.54 17.8335C219.775 17.3754 220.692 15.1919 220.047 14.9904C219.4 14.7888 217.769 15.14 216.996 14.9904C216.45 15.5095 216.474 16.2455 216.004 16.8929C213.888 19.7971 209.627 19.6567 207.545 16.8074C205.437 13.9276 205.746 6.76934 208.839 4.5736H208.846Z" fill="#525252"/>
<path d="M138.188 4.11236L148.608 4.00242C149.249 3.83751 149.096 1.62651 148.882 1.35472C148.449 0.798914 136.377 1.3364 134.749 1.13789C134.273 1.21424 134.245 1.87693 134.212 2.27699C133.729 8.13431 134.59 14.6329 134.212 20.5574C134.172 21.04 134.389 21.3912 134.899 21.3942C139.278 21.0003 144.525 21.895 148.8 21.3942C148.98 21.3728 149.264 21.3576 149.325 21.1591C149.429 20.8231 149.325 19.3756 149.325 18.8748C149.325 18.7068 148.953 18.6579 148.8 18.6396C145.743 18.2823 141.956 18.9878 138.872 18.6488C138.267 18.5816 137.809 18.4808 137.721 17.8181C137.644 17.2501 137.666 13.0327 137.806 12.7151C138.02 12.2295 138.982 12.1349 139.477 12.0982C142.033 11.9028 144.836 12.257 147.42 12.1043C148.137 12.0127 147.96 9.67346 147.551 9.53604L138.13 9.3467C138.017 9.27035 137.864 9.18179 137.806 9.05963C137.666 8.76035 137.663 4.82697 137.809 4.49715C137.873 4.35362 138.063 4.21925 138.191 4.11542L138.188 4.11236Z" fill="#525252"/>
<path d="M130.482 4.32267C129.069 2.26499 127.043 1.17975 124.619 1.17975H115.234C115.21 1.20109 115.182 1.22243 115.154 1.24681C115.148 1.25291 115.145 1.25596 115.139 1.25901V21.3542C115.16 21.3786 115.188 21.406 115.216 21.4304H124.937C127.228 21.4304 129.165 20.3543 130.528 18.3119C131.762 16.4676 132.44 13.9923 132.44 11.3371C132.44 8.68191 131.743 6.16392 130.479 4.32267H130.482ZM125.368 18.3027C124.659 18.574 122.91 18.6685 121.513 18.6685C120.786 18.6685 120.141 18.6441 119.746 18.5954C119.281 18.5436 118.947 18.2997 118.732 17.8607L118.707 17.8119V17.751L118.661 5.08782C118.664 4.62751 119.086 4.11843 119.54 4.01783C119.931 3.93247 121.075 3.92028 121.72 3.92028C122.747 3.92028 123.771 3.94771 124.166 3.99039C126.954 4.28609 128.52 6.88334 128.795 9.16966C129.008 10.9225 129.381 16.7602 125.365 18.3027H125.368Z" fill="#525252"/>
<path d="M155.496 3.87114C158.009 3.54132 161.28 4.09102 163.903 3.88335C164.346 3.84976 165.259 3.81922 165.348 3.34587C165.409 3.02522 165.403 1.34253 165.204 1.20511L151.556 1.1593C151.233 1.26619 151.175 1.95942 151.147 2.27396C150.665 8.11296 151.508 14.6208 151.169 20.53C151.233 20.7896 151.276 21.266 151.556 21.3606C151.938 21.4889 154.693 21.6019 154.659 20.8445C154.894 18.5144 154.366 15.6438 154.656 13.3809C154.723 12.8678 154.989 12.6083 155.496 12.5441C157.948 12.2296 161.06 12.7976 163.589 12.5472C164.426 12.4647 164.319 9.86588 163.714 9.68876L155.038 9.51469C154.946 9.41697 154.794 9.31619 154.745 9.19709C154.598 8.84284 154.592 4.67736 154.745 4.33227C154.876 4.03605 155.2 3.90168 155.496 3.86503V3.87114Z" fill="#525252"/>
<path d="M82.786 21.5786C87.2721 21.319 89.706 18.7721 90.0328 14.347L89.9961 0.977162C89.8221 0.387765 87.8981 0.503812 87.3484 0.555728C86.985 0.592374 86.6949 0.564889 86.5483 0.977162L86.5239 14.8051C86.1391 19.2882 79.0725 20.1035 77.8662 15.5166C77.1119 12.6552 77.4661 6.99329 77.5089 3.83558C77.515 3.43858 77.9028 0.567943 77.2859 0.567943H74.5375C74.3084 0.748121 74.1374 0.937461 74.1496 1.2459C75.0505 8.91722 70.4117 22.3023 82.786 21.5816V21.5786Z" fill="#525252"/>
<path d="M56.9141 17.9934V20.58C56.9141 20.5953 57.1278 20.809 57.1431 20.809H72.4033C72.7056 20.809 72.8186 18.3873 72.3819 18.2438C69.3036 17.9781 65.8161 18.5278 62.7897 18.2224C61.2475 18.0667 61.7544 17.3276 62.35 16.4145C65.1107 12.1788 69.3677 8.15381 72.0887 3.90587C72.162 3.78983 72.4796 3.27067 72.4796 3.23097V0.793982C72.4796 0.778712 72.2659 0.564941 72.2506 0.564941H57.6012C57.1217 0.564941 57.0057 2.94696 57.479 3.12408L67.0651 3.30426C67.5843 3.34091 67.5293 4.13797 67.3675 4.5197C66.3383 6.25125 56.9171 17.1413 56.9171 17.9934H56.9141Z" fill="#525252"/>
<path d="M6.40896 4.00058C8.54973 2.5622 12.8221 2.55915 14.4009 4.83734C14.685 5.24655 14.8315 6.08331 15.253 6.2696C15.5217 6.3887 17.9251 6.41924 18.2061 6.32762C19.2169 5.99781 17.5098 3.41729 17.0853 2.91951C13.4512 -1.32232 4.91867 -0.90394 1.91061 3.92728C-1.09745 8.7585 -0.76763 17.0192 4.4667 20.2258C7.50225 22.0856 11.796 22.1619 14.5628 19.7433C14.9629 19.3921 15.2835 18.366 16.0164 18.7508C16.5906 19.0531 16.2577 20.4823 16.7769 20.7358C17.1494 20.919 18.6244 20.919 18.7619 20.4304V10.6885C18.7619 10.6733 18.5481 10.4595 18.5328 10.4595H11.0539C10.7271 10.4595 10.718 12.8079 10.9684 12.982C11.8968 13.6264 15.8576 11.9254 15.5217 14.3043C15.0056 17.9415 10.7974 19.2455 7.68853 18.2316C2.59163 16.5672 2.29235 6.76738 6.40896 4.00058Z" fill="#525252"/>
<path d="M96.6576 3.29816C99.1801 2.97139 102.439 3.52109 105.065 3.31037C105.343 3.28899 106.332 3.16378 106.442 3.01109C106.531 2.64463 106.641 0.564941 106.28 0.564941H92.6997C92.6478 0.641288 92.4707 0.751227 92.4707 0.793982V20.5831C92.4707 20.5983 92.6845 20.8121 92.6997 20.8121H95.5979C95.6131 20.8121 95.8269 20.5983 95.8269 20.5831V12.6674C95.8269 12.3681 96.3735 12.0414 96.6759 11.9925C99.0029 11.62 102.234 12.301 104.61 11.9925C104.824 11.965 105.004 11.9559 105.15 11.7726C105.364 11.5039 105.517 9.28679 104.876 9.12494C102.319 8.85009 99.3175 9.38757 96.8164 9.09746C96.1476 9.02111 95.9032 8.78291 95.8238 8.108C95.7383 7.37507 95.7078 4.66324 95.83 3.99749C95.9094 3.573 96.2575 3.35312 96.6576 3.30121V3.29816Z" fill="#525252"/>
<path d="M36.3871 0.564827C35.9413 0.439618 34.2586 0.564827 33.6417 0.564827C33.6264 0.564827 33.4127 0.775544 33.4127 0.793867V14.3408C33.4127 19.9019 24.4618 19.9874 24.4099 14.3408L24.3763 0.980153C24.2083 0.415187 21.9759 0.464049 21.4293 0.567881C20.9559 0.656443 20.9254 1.5665 20.8918 2.00931C20.6231 5.42353 20.6689 10.9052 20.8918 14.35C21.2247 19.5507 24.5534 21.9389 29.6778 21.5785C40.2717 20.8334 35.81 8.20561 36.775 1.24279C36.8086 1.02901 36.5673 0.616742 36.3871 0.564827Z" fill="#525252"/>
<path d="M54.1417 12.9972C53.7813 12.4262 52.5842 11.8093 52.633 11.3054C52.6758 10.8626 54.5967 9.61051 55.0059 8.78596C56.8962 5.00221 54.2211 0.564941 49.9701 0.564941H39.2876C39.2388 0.641288 39.0586 0.751227 39.0586 0.793982V20.5831C39.0586 20.5983 39.2724 20.8121 39.2876 20.8121H42.1858C42.201 20.8121 42.4148 20.5983 42.4148 20.5831V13.2782C42.4148 13.1774 42.9065 12.7865 43.105 12.7499C43.9448 12.5911 48.5745 12.6674 49.3654 12.8904C50.5778 13.2324 51.1672 14.4662 51.3504 15.6297C51.4726 16.4054 51.1794 20.8121 52.1047 20.8121H55.0029C55.0975 20.8121 55.2227 20.5861 55.2105 20.4579C55.1769 20.1311 54.8288 19.4623 54.7769 18.9065C54.6028 17.01 55.2197 14.7044 54.1386 12.9972H54.1417ZM49.115 9.57997C47.2705 9.76015 45.1266 9.43033 43.2485 9.57997C43.0653 9.5647 42.8668 9.47003 42.7416 9.34482C42.6102 9.21656 42.5278 9.03027 42.5034 8.84704C42.3934 7.95225 42.3843 5.03275 42.5034 4.15324C42.5675 3.686 43.0072 3.46001 43.447 3.42031C44.7327 3.30426 48.5317 3.2951 49.6586 3.66767C52.5475 4.62048 51.9001 9.30512 49.115 9.57997Z" fill="#525252"/>
</svg>
