<svg width="239" height="237" viewBox="0 0 239 237" fill="none" xmlns="http://www.w3.org/2000/svg">
<path d="M113.027 0.000624297C118.709 0.0565867 124.152 2.52235 129.634 3.57582C135.133 4.63724 140.887 4.91691 146.171 7.03969C151.214 9.0668 155.293 12.9772 159.898 15.8024C165.125 19.0106 170.791 21.0704 176.745 22.7623C179.769 23.6243 182.587 24.0951 185.715 23.9196C187.272 23.8318 189.243 24.5653 190.417 23.5358C191.318 22.7455 192.236 20.9499 191.909 19.6891C191.557 18.3245 189.57 17.3347 188.373 17.3746C184.742 17.5022 183.321 16.1934 182.276 13.0172C181.103 9.44188 182.021 5.14074 185.604 3.95961C190.432 2.36358 194.845 4.15126 197.822 8.86781C198.141 9.37856 198.373 10.1923 199.195 10.5036C199.666 9.50597 200.911 8.76382 201.414 7.76625C202.236 6.15424 203.042 5.40397 204.67 4.56605C208.333 2.67461 212.515 3.3852 213.952 7.42348C214.35 8.56488 213.552 10.863 214.302 11.8844C215.563 11.7088 215.963 9.63349 216.418 8.8434C218.126 5.88268 222.243 2.37111 226.353 2.17934C229.889 2.01174 234.039 4.59802 236.793 8.03773L236.833 8.02113C237.647 9.04267 238.772 10.6237 238.141 12.0123C237.511 13.3768 235.579 13.5046 234.39 13.4567C228.309 13.1933 222.618 14.3819 219.266 19.2741C217.814 21.3889 217.487 24.2784 215.851 26.2496C214.319 28.0931 213.257 30.8859 211.167 32.1071C210.177 32.6897 208.66 32.307 207.854 33.1051C203.968 36.9597 198.748 37.1036 193.665 37.4547C189.81 37.7181 186.187 37.3187 182.555 36.4967C178.924 35.6747 175.133 35.1084 171.67 33.4645C168.094 31.7726 165.293 28.6999 161.893 26.7047C158.493 24.7095 154.957 22.9612 151.597 20.8942C147.495 18.3724 143.21 16.0896 138.869 14.1344C134.527 12.1791 130.057 10.1201 125.381 8.89906C121.438 7.86988 117.272 10.7188 113.29 10.8385C113.057 10.8452 111.598 9.35442 111.255 9.52992C111.494 10.4397 113.41 11.4369 114.064 11.445C121.135 11.5567 127.967 12.4347 133.873 16.026C136.315 17.5024 138.701 19.4739 140.744 21.4371C142.723 23.3365 143.825 26.1534 145.788 28.0768C147.384 29.6489 148.094 30.2719 149.554 28.6842C149.674 28.5485 149.028 27.7103 149.148 27.5827C152.157 24.4066 155.907 26.1459 157.288 30.3434C157.431 30.7584 158.916 30.7269 159.028 31.1579C159.219 31.9079 159.682 31.6682 160.4 31.5006C161.007 31.365 161.582 30.6078 162.196 30.5358C166.793 29.9851 170.959 35.132 170.193 39.6969C169.882 41.5404 168.206 43.1684 166.163 43.6393C165.317 43.8308 163.689 43.0174 162.93 43.4723C162.659 44.382 164.782 45.0287 165.053 45.6432C165.564 46.7924 166.841 48.4922 166.641 49.777C166.306 51.9236 164.024 53.0886 161.702 53.9186C159.18 54.8124 156.642 55.2916 154.671 53.8551C154.056 53.4082 154.431 51.0935 153.936 50.5348C152.955 50.7982 152.627 52.3788 152.077 52.9215C149.778 55.1641 146.378 54.6609 144.694 51.9235C143.712 50.3274 142.197 48.4677 142.492 46.6881C142.747 45.1639 143.88 43.7915 142.244 43.193C140.017 42.387 139.515 41.2854 139.699 38.8913C139.874 36.6087 140.138 35.372 142.572 34.6618C144.032 34.2388 143.09 33.8234 142.037 32.5866C140.888 31.2459 141.063 28.6284 139.755 27.4391C134.791 22.93 128.997 19.2582 122.843 16.5846C119.5 15.1322 115.405 13.6321 111.543 13.3766C111.862 14.5897 113.306 15.6994 114.001 16.0905C117.081 17.8302 119.675 20.1521 122.412 22.4264C125.756 25.2197 130.13 26.6405 132.524 30.1041C134.918 33.5678 134.751 38.2768 135.868 42.3151C136.929 46.1616 138.462 50.0322 138.262 54.4293C137.983 60.7022 134.463 65.3716 130.002 69.9606C128.334 71.6684 127.695 74.3737 125.948 75.9938C121.958 79.6968 120.952 76.9995 120.034 73.6715C119.355 71.2215 119.076 69.0903 121.262 66.9674C119.906 66.9755 119.324 67.5417 118.582 67.861C116.323 68.8266 114.216 68.9229 112.34 67.2711C110.633 65.7707 108.597 64.1341 107.903 61.9713C106.589 57.8813 109.783 54.1337 114.022 54.0914C109.793 52.3461 107.127 46.9113 108.781 41.653C109.212 40.3042 109.587 38.34 110.585 37.2946C112.915 34.8608 117.591 35.3401 120.105 37.5905C120.959 38.3565 121.462 39.5216 122.324 40.2877C123.744 41.5566 125.924 41.7085 126.61 39.8971C127.328 37.9977 124.646 36.2892 123.848 34.4137C122.555 31.3572 121.486 28.7079 119.068 26.6569C116.107 24.1509 112.923 22.187 109.507 20.7584C106.092 19.3299 102.484 18.2606 98.6051 17.9254C94.4712 17.5663 90.1772 16.5606 86.2907 17.3746C82.4042 18.1887 78.7814 20.7035 75.278 22.986C70.8327 25.883 67.6957 29.4583 65.9001 33.4567C64.1046 37.4549 64.1848 42.0915 64.8551 47.3346C65.3499 51.1973 67.4162 54.1108 70.1696 56.8961C71.8136 58.5641 73.3944 59.6973 75.7487 59.5856C78.0709 59.4738 78.3423 58.9225 78.861 56.6959C79.1643 55.3952 79.7148 54.1663 79.7946 52.8336C79.9542 50.2479 81.2233 50.3997 83.777 49.9528C86.7299 49.442 88.6139 49.3696 91.2555 50.9977C95.0862 53.368 97.7432 56.7126 96.0114 61.1579C94.9021 64.0067 94.3123 63.9746 97.321 64.0065C99.2201 64.0227 100.393 65.4518 102.101 66.2897C105.533 67.9817 109.363 71.461 108.932 75.2438C108.573 78.436 105.692 80.5189 102.436 81.4606C100.178 82.115 100.736 82.179 101.838 84.3737C103.306 87.3185 104.287 90.758 103.29 94.07C102.133 97.8847 99.1724 101.716 95.8844 103.025C92.5964 104.334 88.2784 102.778 84.8307 100.758C84.5993 100.623 84.3196 100.575 84.1042 100.423C83.2503 99.817 83.3379 100.104 83.0426 101.197C82.883 101.795 83.3623 102.674 83.1628 103.256C82.0214 106.56 77.7197 108.946 74.2243 108.787C68.7495 108.539 65.0145 103.528 64.6872 98.0289C64.6792 97.8534 65.1344 97.6694 65.1344 97.4938C65.0147 94.0623 64.3116 94.5408 60.9997 95.7379C55.2057 97.8287 50.7203 93.4555 50.3532 87.3024C50.281 86.1534 47.5453 85.0442 47.5846 83.8952C47.7043 80.7268 50.298 80.0961 53.4264 79.9684C54.5755 79.9204 55.6369 78.5402 56.778 78.4284C59.1004 78.2049 60.9121 78.0766 60.8483 75.7702C60.7205 70.8862 56.6029 68.8745 52.3493 66.9352C48.2551 65.0677 44.1126 63.5194 39.6354 64.3414C35.1582 65.1635 29.8754 66.138 26.6911 69.3063C22.2538 73.7197 19.5555 79.3537 18.1588 84.653C16.7622 89.9522 18.7334 95.6905 19.8747 101.692C20.6648 105.858 20.0826 110.423 22.1256 113.871C24.1687 117.318 26.9937 120.702 30.0583 123.559C31.5666 124.964 34.1288 124.956 36.1559 125.491C37.2093 125.77 38.0716 125.769 39.109 125.386C41.814 124.381 42.2768 122.889 40.0426 121.086C37.8799 119.338 35.3895 117.302 36.0358 114.198C36.6822 111.085 39.803 110.032 42.5085 109.25C46.842 107.997 51.2474 108.388 53.3942 111.979C54.2481 113.416 52.6124 115.459 52.6364 117.071C52.6604 118.356 53.7139 119.209 54.3922 120.382C55.3254 120.478 54.7277 120.271 54.8073 119.793C55.0467 118.388 56.3867 116.8 56.1315 115.395C55.916 114.262 54.5034 113.312 54.7028 112.163C54.9821 110.583 55.541 107.98 57.1452 107.597C61.5745 106.544 66.9378 108.683 69.0846 113.599C69.5554 114.677 67.4963 115.714 67.193 116.887C67.0015 117.614 68.2063 118.444 68.7331 119.242C69.547 119.609 70.1777 120.287 70.8161 120.072C73.1864 119.282 74.7429 119.011 76.7301 120.479C78.2223 121.58 78.0386 121.796 77.1608 123.4C76.8574 123.942 76.2194 123.927 75.7965 124.374C71.5668 128.819 68.1027 133.846 62.1491 135.985C57.6321 137.613 52.8597 139.369 48.1432 138.731C42.7083 137.989 37.8632 135.291 33.4499 132.745C29.0368 130.199 25.8841 126.137 22.6042 121.715C20.4574 118.819 18.8213 115.634 16.9938 112.498C16.6505 111.907 15.6131 112.338 15.0944 111.923C14.6472 112.027 13.2431 111.732 13.2751 111.979C13.8337 116.217 15.5331 120.519 17.3288 124.437C20.3774 131.069 26.7224 135.451 31.487 140.822C31.9578 141.349 32.6447 141.484 33.1794 141.947C34.4561 143.048 34.3683 143.95 34.8551 142.314C35.7091 139.417 38.2791 136.376 41.192 137.134C42.8517 137.566 42.4609 140.159 42.82 141.987C43.1791 143.822 44.3681 143.216 46.3073 142.865C48.6056 142.45 49.8665 144.389 51.7419 145.834C54.3755 147.877 55.4371 149.712 52.9313 151.923C52.7318 152.098 52.2531 151.931 52.0456 152.098C51.0879 152.856 51.8541 152.985 52.8756 153.607C55.0222 154.916 54.3444 157.892 54.4401 160.159C54.5359 162.425 53.8491 162.17 51.7262 162.944C49.6992 163.686 48.0075 165.41 46.1003 164.317C45.5896 164.022 46.012 163.926 45.2702 164.181C44.7514 164.931 44.5436 165.124 44.3122 165.962C43.5938 168.603 41.9099 168.172 39.2126 168.435C34.8711 168.85 30.4494 166.113 31.319 161.756C31.6861 159.912 31.8942 158.483 30.1628 157.844C28.6305 157.286 26.6749 156.927 26.0124 155.411C24.7833 152.61 26.6743 151.412 29.0924 149.505C30.8801 148.092 29.5239 147.741 27.8161 146.073C24.2646 142.593 21.9818 137.988 19.0768 133.95C15.0865 128.403 11.0242 122.817 10.1862 115.954C10.0505 114.86 10.3859 114.621 9.75552 113.551C8.8936 114.102 8.60581 113.823 8.57388 114.469C8.22284 121.42 11.9821 127.526 14.6237 133.894C16.2597 137.829 16.7066 142.251 18.7018 146.002C20.697 149.752 22.7083 153.511 24.9508 157.134C28.215 162.402 32.9796 166.967 35.4137 172.705C37.9356 178.626 39.7314 185.235 39.2526 191.787C38.8536 197.325 37.664 203.127 34.6872 207.996C31.3911 213.391 25.8446 216.871 21.0641 220.67C18.3427 222.832 14.2725 224.229 12.9557 227.581C12.3332 229.177 13.3865 231.228 13.4264 232.944C13.4501 233.91 11.8779 234.699 11.7262 235.649C11.4948 237.054 12.2612 237.158 10.9284 236.711C10.4257 236.543 10.2024 236.12 9.75552 235.84C5.65345 233.247 2.18175 227.405 3.73795 222.808C4.64775 220.127 8.13574 219.4 10.2506 217.541C10.8806 216.982 10.4976 215.538 10.6491 214.508C10.0586 213.583 9.49219 213.16 8.67838 212.976C5.76539 212.306 3.61038 210.701 3.08365 207.118C2.70063 204.484 3.89772 202.561 6.46744 201.029C7.98379 200.127 9.64392 199.656 11.4635 199.097C10.9368 197.964 9.89065 198.156 9.13248 197.892C3.23505 195.841 2.74025 185.298 6.10806 181.89C9.0531 178.898 17.018 181.213 18.5104 185.323C18.9334 186.48 19.7636 187.557 20.1227 188.738C20.8569 191.14 21.1042 191.898 22.9079 190.134C24.9906 188.091 25.302 185.354 25.1344 182.665C24.903 179.018 24.8151 175.139 23.3307 171.763C20.5055 165.347 16.8339 159.234 13.1628 153.28C9.95448 148.076 7.03389 143.024 5.31802 137.358C3.60219 131.692 3.29881 125.802 2.81998 119.745C2.48479 115.499 -0.09304 111.301 0.00259461 107.055C0.114325 101.972 3.40249 97.2384 4.3522 92.3063C5.3019 87.3742 6.14064 82.586 8.02408 77.8375C10.123 72.5543 12.2695 67.8531 16.3317 64.1022C20.3939 60.3513 25.2302 58.2602 30.5133 56.4166C35.7966 54.5731 41.0322 54.8525 46.2516 55.3473C49.4359 55.6505 53.195 54.0552 56.0202 55.6832C56.6906 56.0745 57.7521 57.1594 59.4118 57.0397C56.4909 54.2225 53.9928 51.477 53.6735 48.1012C53.043 41.3814 55.1902 35.0287 57.6403 28.7399C59.0848 25.0288 59.428 20.6229 62.0856 17.5104C65.3017 13.7277 69.1322 10.0887 73.4655 7.80629C77.4319 5.70734 82.5325 6.46566 86.7624 5.25258C90.9921 4.03957 95.1419 3.52809 99.611 3.10512C104.128 2.67414 108.51 -0.0472602 113.027 0.000624297ZM34.6803 82.2672C39.9953 82.1397 43.2357 85.9463 43.0124 90.6149H43.0202C43.0601 95.7465 40.2825 99.1389 35.111 99.2506C29.8916 99.3624 25.71 95.922 25.5983 90.7106C25.4867 85.6509 30.3708 82.371 34.6803 82.2672ZM61.3112 61.7164C61.1038 62.5061 61.3592 61.7482 61.6305 62.0592C64.0327 64.8444 64.8542 68.0289 64.7585 71.6041C64.7026 73.6392 63.6093 75.7784 63.7848 77.7975C63.8806 78.9068 64.6634 81.5882 66.2516 81.5084C67.7118 81.4363 67.5123 78.7471 67.6081 77.5661C67.7916 75.3394 68.0393 73.0725 67.8717 70.8698C67.8232 70.2708 66.2035 68.332 66.8737 67.9889C67.5441 67.6457 67.9433 70.4872 68.4381 70.8463C70.8561 72.61 71.7658 74.0704 71.8776 76.9352C71.9654 79.1459 72.9077 81.3329 72.9157 83.5436C72.9237 85.0678 72.5163 86.7196 73.0348 88.1481C73.1785 88.563 73.8968 90.2874 74.4235 90.2877C74.9342 90.2877 74.2963 87.9579 74.5114 87.5582C74.9423 86.7442 76.9611 86.3767 76.985 85.4909C77.0328 83.8069 75.333 82.2028 75.0378 80.5348C74.9262 79.9284 75.7485 79.7443 76.4108 79.3932C77.2247 78.9623 78.0626 78.3404 78.5495 78.8268C78.8606 79.1379 79.6585 79.4333 79.8903 79.8082C80.9118 81.4842 80.1534 84.3741 81.3825 85.8825C82.0688 86.7204 83.0512 87.8214 83.945 88.4039C84.8147 88.97 85.6046 86.7366 86.3307 86.026C87.0729 85.2998 88.6609 84.8847 88.1022 84.0387C87.6712 83.3764 86.0432 83.6078 85.5085 83.0172C83.7208 81.03 82.2046 78.8186 80.0817 77.2145C79.5945 76.8395 78.2065 76.4404 78.4059 75.7223C78.6055 74.9882 79.9701 74.5098 80.5846 74.4938C82.3564 74.4539 84.1762 75.9222 85.9479 75.8424C87.0413 75.7945 89.6594 75.5386 89.7711 74.3414C89.9223 72.7298 87.3449 72.227 86.2594 71.9557C83.3864 71.2454 80.2417 72.0116 77.3288 71.9079C74.9425 71.8201 72.0936 72.3064 70.4176 70.4948C69.7153 69.7446 69.2037 68.4278 69.7145 67.2946C70.2332 66.1374 71.5265 66.7038 72.5241 66.8395C74.639 67.1188 76.8102 68.1089 78.9411 68.0211C79.6514 67.9972 80.8727 68.077 81.527 67.7418C81.9414 67.5258 81.3509 66.2171 81.2711 65.7145C81.2074 65.3075 81.3269 64.1595 80.9762 64.1188C80.3617 64.047 79.627 65.3551 79.0045 65.3551C77.0493 65.3392 74.9819 66.616 73.0426 66.4723C70.1457 66.2567 67.0971 64.9798 64.4635 63.4157V63.4245C63.3063 62.7461 62.62 62.5544 61.3112 61.7164ZM120.145 52.2594C119.172 52.2121 118.206 54.6209 117.232 54.6608C116.492 54.6925 115.773 54.6158 115.087 54.444C115.76 55.0165 116.389 56.0986 117.105 56.1696C118.502 56.3131 120.84 55.4435 122.037 54.5338C121.989 53.5921 120.616 52.2834 120.145 52.2594ZM90.6637 27.527C96.2423 27.3754 101.582 31.4776 101.694 35.6276C101.813 40.0489 95.8116 45.6828 90.5045 45.611C85.6842 45.5471 80.592 40.8866 80.7516 35.6432C80.9112 30.3361 85.4525 27.4952 90.6637 27.527ZM24.862 12.6022C31.7733 12.5543 38.1903 17.95 37.6237 24.3825H37.6149C38.1414 30.9744 31.2229 37.7496 24.7506 37.5104C17.5999 37.247 11.191 31.2613 11.2389 24.2223C11.287 17.6303 18.1343 12.6501 24.862 12.6022Z" fill="#949494"/>
</svg>
