<svg width="1440" height="759" viewBox="0 0 1440 759" fill="none" xmlns="http://www.w3.org/2000/svg">
<g clip-path="url(#clip0_2090_127)">
<rect width="1440" height="759" fill="#E3E3E3"/>
<path d="M1204.74 699.113C1201.71 699.113 1200.23 690.959 1200.21 687.785C1200.15 682.155 1200.01 676.92 1201.32 671.916C1202.62 666.912 1206.26 662.603 1208.56 657.854C1210.85 653.105 1213.88 648.842 1216.57 644.371C1219.04 640.294 1216.7 632.973 1219.22 628.919C1221.98 624.494 1231.38 624.587 1233.98 620.232C1236.59 615.876 1230.96 606.1 1233.39 601.606C1235.82 597.112 1244.05 595.791 1246.17 591.065C1248.29 586.339 1252.7 582.285 1254.36 577.304C1255.37 574.246 1251.36 568.339 1253.01 566.578C1253.56 565.999 1259.32 570.331 1259.79 569.706C1261.73 567.25 1262.08 564.401 1264.42 566.439C1266.76 568.478 1270.43 574.849 1268.48 577.304C1267.8 578.162 1265.79 578.254 1265 579.065C1264.2 579.899 1256.5 577.443 1256.32 577.999C1254.6 583.212 1256.87 589.768 1254.69 594.679C1252.5 599.59 1250.19 604.548 1247.65 609.274C1245.11 614 1242.64 618.888 1239.88 623.475C1237.12 628.062 1236.96 634.548 1234.14 639.089C1231.64 643.097 1229.02 646.966 1226.59 650.997C1223.08 656.811 1214.76 660.078 1212.2 666.472C1209.64 672.866 1213.37 680.441 1213.43 687.599C1213.46 690.796 1207.85 697.074 1204.8 697.098C1204.8 697.098 1204.72 699.09 1204.69 699.09L1204.74 699.113Z" fill="white"/>
<path d="M234.064 683.522C231.261 683.522 223.403 686.024 223.116 683.035C222.52 676.572 226.978 669.599 224.44 663.761C221.902 657.923 213.977 655.537 210.821 649.861C210.6 649.467 214.993 646.78 214.772 646.386C211.77 640.988 211.306 634.015 208.327 628.571C205.347 623.127 200.027 619.073 197.091 613.629C194.155 608.185 192.61 601.814 189.697 596.393C186.033 589.582 178.903 584.81 175.239 577.999C173.738 575.219 176.872 571.86 179.521 570.285C182.17 568.709 189.299 565.952 190.8 568.756C194.487 575.567 198.217 582.377 201.881 589.212C204.773 594.609 203.029 602.833 205.987 608.301C208.945 613.768 207.863 621.575 210.821 627.019C213.779 632.463 218.745 636.726 221.747 642.1C221.968 642.494 220.975 643.096 221.195 643.49C223.491 647.614 224.219 652.386 226.338 656.695C228.457 661.004 230.974 664.178 232.453 668.788C233.932 673.398 236.624 676.665 237.088 681.622C237.375 684.796 238.059 692.07 235.035 692.371C234.859 692.371 234.241 683.522 234.064 683.522Z" fill="white"/>
<path d="M1136.31 581.335C1133.77 581.335 1127.5 580.2 1126.93 577.466C1126.29 574.339 1131.08 565.049 1134.06 564.377C1141.78 562.64 1142.05 563.914 1149.77 562.176C1157.5 560.439 1158.16 563.728 1165.89 561.991C1168.85 561.319 1175.89 563.196 1176.53 566.323C1177.17 569.45 1171.56 574.501 1168.58 575.173C1160.86 576.91 1160.55 575.427 1152.82 577.165C1145.1 578.902 1145.4 580.455 1137.68 582.192C1137.28 582.285 1136.66 581.335 1136.29 581.335H1136.31Z" fill="white"/>
<path d="M1105.43 471.179C1103.53 471.179 1103.2 466.847 1102.18 464.994C1100.66 462.237 1100.04 459.666 1102.69 458.044C1106.75 455.565 1109.89 451.256 1114.02 449.125C1118.14 446.994 1122.51 444.052 1126.95 442.615C1131.39 441.179 1136.77 444.654 1141.56 444.306C1144.61 444.075 1149.13 444.793 1149.33 447.99C1149.53 451.187 1145.43 456.561 1142.38 456.793C1136.13 457.256 1132.16 461.426 1126.46 463.975C1121.06 466.384 1111.74 460.986 1106.18 464.392C1105.3 464.925 1106.36 471.179 1105.43 471.179Z" fill="white"/>
<path d="M1022.65 494.252C1020.69 494.252 1021.09 491.889 1020.09 489.966C1018.64 487.14 1019.98 490.036 1022.65 488.507C1027 486.051 1029.34 480.028 1034.13 478.313C1038.92 476.599 1043.09 473.796 1048.17 472.777C1052.89 471.85 1057.97 472.476 1063.16 472.082C1066.16 471.85 1073.89 472.939 1074.11 476.136C1074.33 479.333 1067.31 488.113 1064.26 488.321C1059.6 488.669 1055.48 487.58 1051.26 488.391C1046.69 489.294 1042.08 487.742 1037.97 489.202C1033.65 490.754 1031.75 496.406 1027.86 498.607C1027.02 499.071 1023.56 494.229 1022.68 494.229L1022.65 494.252Z" fill="white"/>
<path d="M1064.59 605.081C1062.52 605.081 1058.94 607.885 1058.01 605.776C1056.73 602.881 1058.46 596.278 1061.21 594.935C1068.65 591.321 1069.56 593.359 1077.02 589.745C1084.48 586.131 1083.73 584.463 1091.19 580.826C1093.97 579.483 1094.9 584.301 1096.18 587.22C1097.46 590.116 1097.57 587.683 1094.81 589.027C1087.35 592.641 1090.59 599.962 1083.13 603.576C1075.67 607.19 1074.64 604.803 1067.17 608.441C1066.42 608.811 1065.36 605.058 1064.59 605.058V605.081Z" fill="white"/>
<path d="M332.843 468.468C331.695 468.468 330.57 468.399 329.576 467.611C324.764 463.835 321.387 456.051 315.78 453.711C310.174 451.371 303.243 452.275 297.04 451.302C294.016 450.815 289.977 450.004 290.44 446.831C290.904 443.657 295.054 443.773 298.078 444.236C302.713 444.977 306.995 445.672 311.278 447.062C315.56 448.452 322.579 444.236 326.618 446.367C330.658 448.499 332.755 455.147 336.419 458.02C338.869 459.943 339.929 464.576 338.097 467.148C337.015 468.677 334.521 468.468 332.843 468.468Z" fill="white"/>
<path d="M304.171 582.309C303.796 582.309 302.759 584.649 302.383 584.579C294.923 582.981 296.424 575.313 288.985 573.714C281.546 572.116 281.414 572.741 273.975 571.143C270.995 570.494 272.805 571.931 273.401 568.803C274.019 565.676 273.048 559.977 276.006 560.602C283.444 562.201 282.12 569.058 289.581 570.656C297.042 572.255 297.395 570.378 304.833 571.977C307.813 572.626 309.094 573.158 308.476 576.309C307.946 579.043 306.732 582.332 304.171 582.332V582.309Z" fill="white"/>
<path d="M377.012 614.74C376.593 614.74 374.982 614.208 374.54 614.115C368.647 612.655 364.254 604.501 358.427 601.814C352.93 599.289 349.377 594.539 344.543 589.86C342.313 587.682 339.841 586.408 341.916 584.045C343.991 581.705 345.403 584.184 347.633 586.339C351.628 590.207 357.853 591.783 362.643 593.891C367.433 595.999 373.039 596.949 378.094 598.2C381.052 598.941 386.68 602.254 385.996 605.358C385.4 608.022 379.507 614.717 376.99 614.717L377.012 614.74Z" fill="white"/>
<path d="M418.929 491.195C417.759 491.195 414.449 499.188 413.455 498.377C409.659 495.342 407.473 490.917 403.213 489.203C398.953 487.489 395.775 479.913 391.117 479.01C386.724 478.176 381.692 478.153 376.924 477.597C373.9 477.249 368.073 479.079 368.404 475.905C368.735 472.732 374.695 469.674 377.719 470.021C383.016 470.647 388.424 470.994 393.545 472.037C398.666 473.079 403.986 474.886 408.908 476.971C413.83 479.056 417.031 483.851 421.424 487.35C423.852 489.296 427.339 493.489 425.507 496.037C424.426 497.543 420.607 491.172 418.929 491.172V491.195Z" fill="white"/>
<path d="M714.71 568.409C712.282 568.409 708.684 567.089 708.044 564.517C705.837 555.83 706.146 555.737 703.939 547.05C703.144 543.969 704.623 535.351 707.581 534.54C710.516 533.729 713.187 541.165 713.96 544.247C716.167 552.934 719.875 551.891 722.083 560.579C722.877 563.66 719.853 570.401 716.918 571.212C716.432 571.351 715.196 568.409 714.732 568.409H714.71Z" fill="white"/>
<path d="M725.747 612.588C725.195 612.588 723.739 617.522 723.165 617.337C720.273 616.364 717.426 609.507 718.375 606.472C720.273 600.31 719.412 600.935 719.942 594.472C717.602 589.143 721.995 584.07 721.62 578.742C721.2 573.112 718.993 567.39 719.854 562.039C720.759 556.34 726.167 551.846 727.425 546.818C728.197 543.714 728.462 541.745 731.42 542.556C734.356 543.367 735.945 545.846 735.173 548.95C733.892 554 734.753 559.12 733.981 563.568C733.098 568.688 732.634 573.043 732.943 577.653C733.252 582.263 737.402 584.603 739.698 589.143C740.382 590.533 739.521 595.908 739.079 597.391C736.85 604.665 728.021 601.676 725.791 608.951C725.041 611.406 728.087 612.565 725.769 612.565L725.747 612.588Z" fill="white"/>
<path d="M365.952 472.709C363.723 472.709 362.09 471.828 361.273 469.512C360.191 466.523 362.288 466.5 365.136 465.365C366.902 464.67 365.864 456.538 367.63 455.797C372.133 453.851 377.475 450.608 382.64 449.403C387.408 448.291 392.838 457.535 398.246 458.647C401.226 459.272 401.336 457.581 400.74 460.708C400.144 463.836 400.696 462.122 397.694 461.519C393.588 460.662 388.688 464.925 384.737 465.99C380.786 467.056 376.459 466.94 372.574 468.585C370.742 469.373 368.645 469.303 366.791 470.021C366.151 470.276 366.593 472.709 365.93 472.709H365.952Z" fill="white"/>
<path d="M346.087 467.797C344.542 467.797 339.575 468.932 338.472 467.611C333.24 461.241 332.733 461.704 327.479 455.333C322.226 448.962 325.493 446.02 320.239 439.65C318.253 437.24 319.754 433.65 322.049 431.541C324.345 429.456 326.552 429.688 328.539 432.097C333.77 438.468 332.357 439.742 337.611 446.113C342.864 452.484 344.829 450.7 350.06 457.071C352.047 459.48 349.332 459.804 347.014 461.889C345.977 462.839 347.323 467.797 346.043 467.797H346.087Z" fill="white"/>
<path d="M1072.32 473.31C1071.88 473.31 1072.41 469.302 1071.94 469.163C1064.22 467.148 1062.05 476.206 1054.33 474.191C1046.6 472.175 1047.82 467.102 1040.09 465.086C1037.13 464.322 1034.46 461.009 1035.19 457.905C1035.92 454.8 1040.69 449.403 1043.65 450.167C1051.37 452.183 1051.06 453.503 1058.79 455.542C1066.51 457.58 1066.2 458.878 1073.93 460.916C1076.89 461.681 1076.42 465.434 1075.7 468.538C1075.08 471.179 1074.81 473.333 1072.34 473.333L1072.32 473.31Z" fill="white"/>
<path d="M1094.37 462.26C1093.05 462.26 1093.44 461.68 1092.39 460.684C1090.13 458.53 1088.24 456.839 1090.27 454.476C1095.78 448.105 1092.03 444.537 1097.55 438.167C1103.07 431.796 1103.89 432.584 1109.4 426.213C1111.46 423.85 1115.01 429.78 1117.26 431.935C1119.51 434.089 1120.64 432.607 1118.59 434.993C1113.07 441.364 1118.23 446.275 1112.71 452.646C1107.2 459.016 1103.55 455.541 1098.04 461.912C1096.95 463.163 1095.85 462.283 1094.35 462.283L1094.37 462.26Z" fill="white"/>
<path d="M372.575 494.786C371.471 494.786 368.447 502.639 367.476 501.944C361.958 497.89 366.924 490.43 361.406 486.376C358.912 484.546 359.176 488.369 360.942 485.728C362.686 483.11 359.839 483.156 362.333 484.986C367.851 489.04 370.412 485.218 375.93 489.272C378.424 491.102 375.135 492.237 373.37 494.855C372.288 496.454 374.319 494.762 372.575 494.762V494.786Z" fill="white"/>
<path d="M683.807 808.342C680.96 808.342 680.077 806.905 679.856 803.871C679.172 794.326 674.117 794.72 673.41 785.152C672.704 775.585 677.582 775.214 676.898 765.646C676.677 762.449 677.538 758.858 680.584 758.627C683.652 758.372 690.981 761.314 691.202 764.511C691.886 774.056 689.59 774.241 690.274 783.809C690.959 793.376 687.206 793.654 687.913 803.222C688.133 806.419 687.582 813.369 684.557 813.601C684.425 813.601 683.961 808.319 683.829 808.319L683.807 808.342Z" fill="white"/>
<path d="M347.19 429.364C345.976 429.364 342.974 435.92 341.936 435.04C340.104 433.487 337.742 432.491 335.932 430.893C331.893 427.325 332.224 418.314 328.118 415.348C324.896 413.032 318.803 414.885 314.896 412.452C311.585 410.391 307.701 408.885 303.683 406.591C299.71 404.321 296.443 397.348 292.095 397.719C288.276 398.043 282.736 399.618 278.387 401.981C275.694 403.441 278.012 403.881 276.621 401.031C275.231 398.182 272.03 396.004 274.745 394.545C280.727 391.302 286.863 389.356 292.47 389.054C298.584 388.73 306.818 386.622 312.38 389.796C316.574 392.182 319.377 396.56 322.865 398.715C326.926 401.263 328.582 407.055 331.959 409.51C336.506 412.8 341.406 415.441 345.468 419.032C347.212 420.584 347.41 424.175 349.176 425.68C351.538 427.696 354.672 430.499 352.752 432.978C351.67 434.391 348.801 429.364 347.19 429.364Z" fill="white"/>
<path d="M670.563 815.199C669.591 815.199 667.075 821.06 666.17 820.504C665.618 820.157 669.26 812.21 668.708 811.886C667.318 811.052 660.872 818.558 659.438 817.469C655.575 814.527 653.875 808.295 650.321 804.936C646.768 801.577 639.969 800.535 637.122 796.504C634.274 792.473 634.23 785.847 632.486 781.005C630.875 776.557 635.047 770.835 634.671 765.461C634.451 762.264 632.861 759.044 635.885 758.812C638.954 758.58 645.377 761.43 645.598 764.604C646.017 770.581 644.891 775.492 647.297 780.264C649.703 785.036 650.763 791.175 654.802 795.276C658.378 798.913 664.647 799.747 669.238 803.245C670.165 803.963 669.724 807.114 670.916 807.809C671.556 808.18 673.432 806.326 674.05 806.72C676.655 808.365 675.021 811.909 673.454 814.643C672.417 816.45 672.439 815.199 670.563 815.199Z" fill="white"/>
<path d="M1091.08 434.298C1089.2 434.298 1086.07 433.881 1085.05 432.074C1083.49 429.34 1086.18 425.935 1088.81 424.29C1090 423.549 1089.42 419.541 1090.66 418.823C1093.13 417.386 1098.41 420.606 1100.33 418.985C1102.16 417.433 1099.62 410.691 1101.45 408.745C1104.37 405.664 1109.25 403.973 1113 401.517C1117.44 398.622 1123.26 396.699 1128.82 394.197C1133.95 391.903 1139.44 389.934 1145.4 389.865C1150.66 389.795 1156.55 390.374 1162.33 393.386C1165.07 394.799 1161.45 396.722 1160.08 399.595C1158.73 402.467 1161.16 403.046 1158.43 401.633C1153.9 399.27 1148.29 401.587 1144.08 401.888C1139.86 402.189 1137.76 408.12 1133.37 410.297C1129.64 412.174 1122.93 408.653 1118.8 411.34C1116.15 413.054 1115.63 418.058 1113.04 420.792C1111.08 422.877 1106.22 421.695 1103.93 423.641C1101.28 425.888 1098.17 426.166 1095.41 427.788C1094.3 428.437 1095.63 433.626 1094.55 434.298C1093.66 434.854 1092.07 434.298 1091.1 434.298H1091.08Z" fill="white"/>
<path d="M452.06 469.928C450.14 469.928 451.861 460.985 450.846 459.109C448.109 454.105 439.434 454.522 434.622 451.626C430.229 449.008 426.367 444.004 420.539 443.217C415.573 442.545 410.452 447.781 404.647 448.499C399.614 449.124 394.603 449.008 389.063 450.699C387.849 451.07 387.584 443.564 386.414 443.031C379.902 440.112 378.357 443.912 371.846 440.97C369.042 439.719 368.535 437.518 369.749 434.576C370.941 431.634 371.713 433.209 374.495 434.46C380.101 436.985 381.823 431.286 387.827 432.56C393.08 431.054 397.429 432.977 402.329 432.329C407.781 431.634 413.277 428.228 418.177 428.576C423.652 428.969 426.786 439.139 431.444 440.807C436.542 442.638 443.871 438.514 447.822 441.827C451.773 445.14 449.786 453.317 452.435 458.159C453.958 460.939 460.139 466.684 457.49 468.283C456.629 468.792 453.009 469.904 452.082 469.904L452.06 469.928Z" fill="white"/>
<path d="M988.418 468.145C987.381 468.145 984.599 466.685 983.672 466.036C981.112 464.299 980.096 456.515 981.752 453.828C985.35 448.036 994.289 448.916 999.168 445.372C1004.05 441.828 1006.94 435.179 1013.36 433.789C1018.88 432.607 1025.28 426.746 1032.03 427.14C1035.68 427.349 1038.46 436.129 1041.88 436.847C1051.02 438.77 1054.22 433.14 1060 427.997C1062.32 425.935 1069.4 429.827 1071.37 432.26C1073.33 434.692 1075.5 442.221 1073.18 444.306C1068.48 448.499 1061.22 451.882 1056.43 452.368C1050.86 452.924 1045.83 442.245 1041.04 441.248C1037.86 440.577 1034.11 441.943 1031.28 441.781C1025.88 441.48 1021.22 445.789 1016.89 446.646C1011.73 447.642 1004.13 443.403 1000.27 446.136C996.409 448.87 999.786 459.596 996.938 464.206C995.879 465.921 990.206 468.168 988.396 468.168L988.418 468.145Z" fill="white"/>
<path d="M134.184 745.769C132.771 745.769 129.063 748.642 128.003 747.506C123.588 742.873 119.174 738.24 114.759 733.607C112.596 731.336 116.812 727.259 118.953 725.012C121.116 722.742 124.471 718.873 126.635 721.143C133.257 728.093 135.044 726.216 141.666 733.166C143.83 735.437 140.21 742.804 138.046 745.074C136.965 746.209 135.596 745.769 134.184 745.769Z" fill="white"/>
<path d="M1067.9 427.581C1067.59 427.581 1067.77 429.898 1067.44 429.829C1062.5 428.902 1055.61 433.836 1051.68 431.497C1047.53 429.018 1044.44 424.107 1040.78 421.141C1037.66 418.639 1035.65 415.141 1032.56 413.172C1029.96 411.504 1026.85 405.365 1028.44 402.631C1030.03 399.898 1035.46 402.029 1038.06 403.697C1041.68 406.014 1046.32 406.593 1049.52 409.187C1055.92 414.33 1061.68 417.967 1069.21 419.357C1072.21 419.913 1078.68 425.867 1078.15 429.018C1077.68 431.821 1070.53 427.605 1067.9 427.605V427.581Z" fill="white"/>
<path d="M990.628 404.391C987.758 404.391 987.891 403.742 987.692 400.684C987.471 397.487 987.493 399.132 990.54 398.9C1002.13 398.043 1001.66 391.302 1013.25 390.445C1016.28 390.213 1019.87 395.078 1020.1 398.252C1020.32 401.449 1016.92 399.294 1013.87 399.526C1002.28 400.383 1002.37 401.657 990.782 402.537C990.65 402.537 990.782 404.391 990.628 404.391Z" fill="white"/>
<path d="M1110.92 485.38C1104.85 485.38 1104.85 484.036 1098.78 484.036C1095.74 484.036 1096.82 482.437 1096.82 479.24C1096.82 476.044 1095.74 477.04 1098.78 477.04C1104.85 477.04 1104.85 475.256 1110.92 475.256C1113.97 475.256 1117.08 476.044 1117.08 479.24C1117.08 482.437 1113.99 485.38 1110.92 485.38Z" fill="white"/>
<path d="M414.515 431.656C411.601 431.656 407.341 424.799 407.186 421.718C407.032 418.521 411.005 412.196 414.051 412.034C424.536 411.455 424.779 416.552 435.263 415.973C438.354 415.834 435.639 416.946 435.793 420.119C435.948 423.316 438.972 428.853 435.926 429.015C425.441 429.594 424.999 420.745 414.515 421.324C414.426 421.324 414.603 431.633 414.515 431.633V431.656Z" fill="white"/>
<path d="M447.646 411.897C447.646 411.897 447.513 405.433 447.425 405.433C441.355 405.132 441.443 403.163 435.373 402.862C429.303 402.561 428.95 410.715 422.879 410.437C419.833 410.298 419.767 402.329 419.922 399.155C420.054 395.958 420.385 398.715 423.387 398.854C429.457 399.155 429.678 394.175 435.748 394.453C441.818 394.731 441.752 396.306 447.822 396.584C450.868 396.723 457.424 397.742 457.292 400.939C457.159 404.044 450.603 411.897 447.668 411.897H447.646Z" fill="white"/>
<path d="M375.909 428.901C374.165 428.901 368.911 434.669 367.852 433.071C366.108 430.453 370.457 424.522 372.951 422.692C380.39 417.178 380.08 416.715 387.541 411.202C395.002 405.688 394.605 405.109 402.043 399.618C404.538 397.788 405.001 401.727 406.745 404.344C408.489 406.962 408.423 403.58 405.928 405.433C398.467 410.924 398.887 411.526 391.426 417.039C383.965 422.553 384.937 423.989 377.498 429.48C376.527 430.198 377.012 428.901 375.909 428.901Z" fill="white"/>
<path d="M1023.76 431.61C1023.76 431.61 1023.52 427.881 1023.4 427.881C1013.47 427.301 1013.38 428.9 1003.45 428.321C1000.4 428.135 996.144 422.9 996.321 419.703C996.497 416.506 1001.2 413.471 1004.22 413.657C1014.16 414.236 1013.89 419.332 1023.82 419.911C1026.87 420.097 1024.44 418.128 1024.27 421.325C1024.11 424.406 1026.67 431.587 1023.76 431.587V431.61Z" fill="white"/>
<path d="M356.019 426.167C353.878 426.167 351.405 421.371 350.5 419.194C346.902 410.506 349.993 409.093 346.417 400.406C342.841 391.719 336.903 394.406 333.327 385.718C332.113 382.776 335.932 376.058 338.713 374.784C341.517 373.51 350.302 374.506 351.516 377.448C355.114 386.135 347.852 389.425 351.427 398.112C355.003 406.8 354.518 407.032 358.094 415.719C359.308 418.661 360.853 420.399 358.049 421.649C357.343 421.974 356.725 426.144 355.997 426.144L356.019 426.167Z" fill="white"/>
<path d="M1109.84 368.761C1107.99 368.761 1105.1 372.375 1104.06 370.591C1102.47 367.857 1101.9 359.402 1104.5 357.734C1114.44 351.363 1118.89 359.031 1128.83 352.66C1131.43 350.992 1128.72 351.015 1130.31 353.749C1131.9 356.483 1137.33 361.116 1134.72 362.784C1124.79 369.155 1121.9 364.174 1111.96 370.545C1111.06 371.124 1110.82 368.761 1109.84 368.761Z" fill="white"/>
<path d="M1084.44 424.592C1083.78 424.592 1082.08 423.967 1081.44 423.712C1078.59 422.553 1077.84 416.298 1078.94 413.31C1081.97 405.063 1083.71 405.758 1086.73 397.511C1089.76 389.263 1090.55 389.564 1093.6 381.317C1094.7 378.329 1093.82 381.132 1096.67 382.29C1099.51 383.449 1098.28 379.788 1097.17 382.777C1094.15 391.024 1102.05 394.244 1099.03 402.491C1096 410.739 1089.27 408.028 1086.23 416.275C1085.39 418.569 1086.65 424.615 1084.42 424.615L1084.44 424.592Z" fill="white"/>
<path d="M328.428 395.471C327.28 395.471 325.603 397.324 324.609 396.536C315.78 389.587 312.999 393.478 304.169 386.529C301.741 384.606 300.329 373.092 302.161 370.521C303.993 367.972 309.931 373.115 312.381 375.038C321.21 381.988 324.455 377.447 333.284 384.397C335.712 386.32 332.335 390.282 330.503 392.83C329.421 394.336 330.106 395.471 328.428 395.471Z" fill="white"/>
<path d="M1295.24 576.864C1293.69 576.864 1289.61 578.207 1288.53 576.91C1287.69 575.914 1292.39 569.937 1291.59 568.917C1289.87 566.786 1282.17 570.609 1280.42 568.755C1275.48 563.45 1274.62 553.952 1269.63 548.74C1266.65 545.612 1265.5 546.84 1262.5 543.712C1260.34 541.442 1257.64 534.631 1259.79 532.384C1261.95 530.114 1269.83 531.481 1271.99 533.751C1274.97 536.855 1275.79 535.975 1278.77 539.102C1283.8 544.361 1289.32 549.203 1294.29 554.531C1296.3 556.686 1297.13 560.23 1298.9 562.408C1299.67 563.358 1300.97 563.798 1301.77 564.748C1303.78 567.157 1300.36 572.045 1298.06 574.153C1297.02 575.126 1296.52 576.887 1295.24 576.887V576.864Z" fill="white"/>
<path d="M1113.16 394.428C1111.41 394.428 1107.37 396.629 1106.29 394.984C1104.57 392.343 1105.52 384.026 1108.04 382.219C1116.86 375.849 1121.43 382.822 1130.26 376.451C1132.78 374.644 1135.45 370.08 1137.17 372.721C1138.89 375.362 1138.39 383.239 1135.87 385.046C1127.04 391.417 1128.21 393.2 1119.38 399.571C1118.43 400.266 1114.24 394.451 1113.16 394.451V394.428Z" fill="white"/>
<path d="M1062.36 393.179C1059.89 393.179 1062.94 386.901 1062.32 384.283C1060.11 375.016 1059.69 375.132 1057.49 365.866C1056.74 362.761 1053.65 360.862 1056.6 360.074C1059.54 359.286 1062.81 361.163 1063.53 364.267C1065.74 373.534 1065.48 373.603 1067.68 382.87C1068.43 385.974 1065.56 384.515 1062.61 385.302C1062.17 385.418 1062.81 393.202 1062.36 393.202V393.179Z" fill="white"/>
<path d="M972.967 724.064C970.098 724.064 971.201 716.419 970.981 713.361C970.76 710.164 969.48 706.99 972.526 706.782C984.114 705.925 983.783 700.944 995.372 700.063C998.374 699.832 1000.85 707.917 1001.04 711.114C1001.27 714.311 999.941 722.35 996.895 722.581C985.306 723.438 984.732 714.936 973.144 715.793C973.011 715.793 973.1 724.064 972.967 724.064Z" fill="white"/>
<path d="M375.886 391.556C375.357 391.556 374.099 397.139 373.569 396.977C370.655 396.05 367.918 389.726 368.801 386.645C372.112 375.062 374.452 375.803 377.763 364.22C378.646 361.162 381.03 359.749 383.965 360.675C386.879 361.602 386.173 363.525 385.29 366.583C381.979 378.166 386.327 379.533 383.016 391.116C382.288 393.618 378.27 391.556 375.909 391.556H375.886Z" fill="white"/>
<path d="M1106.53 608.996C1106.09 608.996 1106.16 603.274 1105.69 603.158C1102.73 602.394 1099.14 601.05 1099.86 597.946C1101.52 590.996 1101.21 590.903 1102.87 583.953C1103.59 580.849 1106.99 584.486 1109.95 585.25C1112.91 586.015 1120.44 585.25 1119.71 588.355C1118.05 595.305 1112.93 593.961 1111.28 600.911C1110.66 603.552 1109 608.973 1106.53 608.973V608.996Z" fill="white"/>
<path d="M1072.3 633.946C1070.09 633.946 1069.78 627.691 1068.92 625.397C1067.82 622.409 1067.84 620.88 1070.69 619.722C1075.65 617.683 1074.33 614.115 1079.29 612.1C1082.14 610.942 1089.69 613.49 1090.79 616.478C1091.9 619.467 1087.73 626.023 1084.88 627.181C1079.91 629.22 1077.97 623.938 1073 625.977C1072.34 626.255 1072.94 633.946 1072.27 633.946H1072.3Z" fill="white"/>
<path d="M465.282 715.861C454.245 715.861 454.245 722.765 443.209 722.765C440.163 722.765 439.302 715.259 439.302 712.062C439.302 708.865 440.163 700.688 443.209 700.688C454.245 700.688 454.245 708.518 465.282 708.518C468.328 708.518 470.933 708.865 470.933 712.062C470.933 715.259 468.328 715.861 465.282 715.861Z" fill="white"/>
<path d="M1252.22 754.134C1250.43 754.134 1250.85 751.33 1249.79 749.639C1248.11 746.975 1245.97 743.801 1248.51 742.064C1249.81 741.16 1250.1 738.96 1251.51 737.57C1254.07 735.068 1260.25 737.662 1264.56 736.226C1267.89 735.114 1268.46 736.504 1273.19 738.682C1275.97 739.979 1278.95 737.871 1277.71 740.813C1276.48 743.732 1273.01 747.022 1270.23 745.724C1266.52 744.01 1267.43 745.354 1262.59 750.056C1260.89 751.724 1259.52 754.875 1257.43 756.311C1256.5 756.96 1253.26 754.134 1252.2 754.134H1252.22Z" fill="white"/>
<path d="M975.174 600.748C974.6 600.748 973.629 601.93 973.055 601.721C970.164 600.702 973.276 597.76 974.247 594.725C975.748 589.976 971.113 583.837 970.318 579.111C969.524 574.385 967.559 570.284 966.036 565.582C965.572 564.122 969.082 561.296 968.619 559.836C967.669 556.802 967.824 560.068 970.738 559.072C973.629 558.076 971.444 555.504 972.393 558.562C972.835 559.975 980.141 559.002 980.604 560.416C982.37 565.86 976.653 573.458 977.47 579.644C978.22 585.319 985.924 591.899 983.937 598.13C983.165 600.563 977.47 600.748 975.174 600.748Z" fill="white"/>
<path d="M886.904 518.368C884.962 518.368 882.269 514.5 881.276 512.577C879.819 509.774 880.967 504.608 883.638 503.055C889.708 499.581 891.738 503.496 897.809 500.021C900.48 498.492 901.34 497.449 902.797 500.252C904.254 503.055 905.6 508.337 902.908 509.866C896.837 513.341 893.99 507.851 887.92 511.326C887.081 511.812 887.787 518.392 886.904 518.392V518.368Z" fill="white"/>
<path d="M906.747 365.123C905.952 365.123 903.723 365.17 902.972 364.776C900.213 363.409 903.546 358.382 904.87 355.486C907.63 349.417 904.826 348.003 907.585 341.911C910.345 335.818 914.163 337.741 916.922 331.648C918.225 328.752 919.019 321.964 921.779 323.354C924.538 324.721 928.047 333.663 926.745 336.559C923.986 342.629 921.05 341.169 918.291 347.262C915.532 353.355 913.854 352.498 911.095 358.59C910.146 360.675 908.844 365.123 906.769 365.123H906.747Z" fill="white"/>
<path d="M1379.11 565.303C1378.61 565.303 1376.66 565.558 1376.16 565.419C1373.22 564.539 1375.67 556.824 1376.51 553.743C1377.61 549.689 1369.93 547.396 1371.04 543.342C1371.87 540.26 1379.29 542.253 1382.23 543.133C1385.16 544.013 1387.97 545.079 1387.13 548.16C1386.02 552.214 1385.65 552.098 1384.54 556.153C1383.86 558.701 1381.52 565.303 1379.11 565.303Z" fill="white"/>
<path d="M452.039 696.518C451.134 696.518 449.324 701.985 448.485 701.522C442.415 698.047 444.49 694.039 438.42 690.564C435.749 689.035 432.327 687.043 433.784 684.24C435.241 681.436 440.671 679.583 443.342 681.112C449.412 684.587 449.037 685.305 455.107 688.78C457.778 690.309 454.555 692.487 453.076 695.29C452.083 697.213 453.981 696.518 452.017 696.518H452.039Z" fill="white"/>
<path d="M529.294 365.308C526.999 365.308 523.423 358.961 522.628 356.551C520.421 349.903 517.529 350.945 515.322 344.296C513.115 337.625 513.998 337.323 511.79 330.651C510.797 327.64 516.095 324.026 518.964 322.983C521.834 321.941 526.866 321.756 527.882 324.79C530.089 331.439 529.272 331.74 531.48 338.412C533.687 345.084 528.699 346.891 530.906 353.563C531.899 356.575 533.025 355.671 530.155 356.714C529.559 356.922 529.913 365.332 529.317 365.332L529.294 365.308Z" fill="white"/>
<path d="M560.925 341.146C559.269 341.146 558.431 337.996 557.371 336.559C550.396 327.108 553.045 324.953 546.07 315.501C544.193 312.976 542.582 314.042 544.988 312.096C547.394 310.127 552.272 306.42 554.126 308.945C559.777 316.59 553.288 323.192 560.395 329.355C562.161 330.861 564.302 324.675 566.377 323.679C569.158 322.358 570.439 325.648 571.697 328.567C572.955 331.486 575.714 337.579 572.933 338.899C568.871 340.822 566.355 334.961 562.294 336.884C561.565 337.231 561.675 341.17 560.925 341.17V341.146Z" fill="white"/>
<path d="M553.576 522.679C552.361 522.679 551.037 517.188 550.022 516.354C544.503 511.721 544.724 511.443 539.206 506.81C536.822 504.818 537.639 502.385 539.537 499.883C541.435 497.381 540.95 499.397 543.311 501.389C548.83 506.022 551.412 502.64 556.931 507.273C559.315 509.265 558.123 511.397 556.224 513.899C555.143 515.335 555.209 522.702 553.576 522.702V522.679Z" fill="white"/>
<path d="M877.456 336.722C876.375 336.722 874.344 341.031 873.395 340.336C870.393 338.158 874.256 332.251 871.254 330.073C868.737 328.266 866.596 330.189 868.318 327.548C870.04 324.907 872.578 322.428 875.072 324.235C876.044 324.93 872.512 323.633 873.395 322.822C880.083 316.521 884.718 321.432 890.59 314.273C892.577 311.841 895.623 307.069 897.94 309.154C900.258 311.239 895.336 314.32 893.349 316.752C888.361 322.837 883.379 328.922 878.406 335.007C877.324 336.328 879.002 336.722 877.434 336.722H877.456Z" fill="white"/>
<path d="M145.221 574.223C143.83 574.223 144.338 573.945 143.256 572.857C141.071 570.633 138.621 568.455 140.74 566.161C143.631 563.057 146.876 559.999 149.415 555.991C152.218 551.567 157.14 549.018 161.047 544.964C164.601 541.304 165.705 532.617 171.311 530.763C174.225 529.813 181.597 533.566 182.524 536.624C183.429 539.682 178.088 542.717 175.174 543.667C171.024 545.034 164.535 545.173 161.798 548.3C159.215 551.242 159.325 557.451 156.942 561.227C154.227 565.513 150.739 568.802 147.119 572.694C146.037 573.853 146.655 574.223 145.221 574.223Z" fill="white"/>
<path d="M124.25 610.594C121.425 610.594 122.948 605.174 122.683 602.162C122.418 598.965 120.674 596.185 123.72 595.884C129.923 595.282 129.106 592.942 129.415 581.984C129.504 578.787 136.788 574.988 139.922 575.127C142.968 575.219 144.315 579.274 144.226 582.471C144.006 590.44 145.043 597.714 142.152 601.56C138.046 607.004 130.1 607.768 124.802 608.278C124.625 608.278 124.427 610.618 124.25 610.618V610.594Z" fill="white"/>
<path d="M1088.85 581.891C1085.92 581.891 1086.98 575.683 1086.84 572.578C1086.71 569.381 1085.65 569.08 1088.7 568.941C1094.77 568.663 1094.48 562.292 1100.55 561.991C1103.51 561.829 1108.08 568.385 1108.21 571.559C1108.34 574.756 1104.52 583.258 1101.48 583.397C1095.41 583.698 1095.14 577.351 1089.07 577.652C1088.98 577.652 1088.92 581.891 1088.85 581.891Z" fill="white"/>
<path d="M699.26 725.406C697.935 725.406 693.3 723.437 692.218 722.417C685.596 716.046 690.21 710.765 683.588 704.394C681.336 702.239 682.705 702.772 684.758 700.409C686.81 698.046 684.118 699.042 686.369 701.197C692.991 707.568 696.17 703.93 702.792 710.301C705.043 712.456 703.123 713.73 701.07 716.093C699.988 717.344 700.761 725.406 699.26 725.406Z" fill="white"/>
<path d="M516.073 372.282C514.13 372.282 511.636 368.437 510.62 366.514C509.164 363.711 509.693 357.826 512.364 356.297C518.434 352.822 520.443 356.691 526.513 353.216C529.184 351.687 532.87 350.135 534.327 352.938C535.784 355.741 532.804 358.614 530.133 360.143C524.063 363.618 524.681 364.799 518.611 368.274C517.772 368.761 516.955 372.282 516.073 372.282Z" fill="white"/>
<path d="M535.915 396.491C535.165 396.491 533.973 397.858 533.244 397.534C523.312 392.901 525.011 388.87 515.078 384.236C512.297 382.939 504.836 380.205 506.072 377.286C507.308 374.368 513.975 378.954 516.756 380.252C526.689 384.885 527.241 383.565 537.174 388.198C539.955 389.495 538.056 388.708 536.82 391.65C535.915 393.804 538.012 396.515 535.893 396.515L535.915 396.491Z" fill="white"/>
<path d="M881.362 373.069C880.369 373.069 876.881 374.251 875.976 373.671C873.394 371.98 878.89 366.745 880.501 364.011C885.468 355.625 878.471 351.061 883.437 342.652C888.403 334.242 888.712 334.451 893.679 326.064C895.29 323.354 900.014 326.968 902.597 328.659C905.179 330.35 907.806 331.509 906.195 334.219C901.228 342.605 901.471 342.767 896.504 351.177C891.538 359.586 893.458 360.837 888.492 369.223C887.454 370.984 883.194 373.069 881.34 373.069H881.362Z" fill="white"/>
<path d="M1310.69 672.055C1308.24 672.055 1307.42 669.391 1306.76 666.796C1305.26 660.912 1302.79 655.699 1303.82 650.834C1304.95 645.576 1309.74 642.68 1313.78 638.695C1315.99 636.518 1315.48 637.676 1317.57 640.016C1319.67 642.356 1325.79 647.429 1323.56 649.607C1318.74 654.356 1310.93 656.904 1313.01 665.059C1313.78 668.14 1316.21 675.066 1313.25 675.877C1312.78 676.016 1311.13 672.055 1310.67 672.055H1310.69Z" fill="white"/>
<path d="M849.358 354.953C846.312 354.953 841.081 355.023 841.081 351.826C841.081 342.559 843.31 342.559 843.31 333.293C843.31 330.096 846.312 323.934 849.358 323.934C852.404 323.934 854.082 330.096 854.082 333.293C854.082 342.559 856.113 342.559 856.113 351.826C856.113 355.023 852.404 354.953 849.358 354.953Z" fill="white"/>
<path d="M591.1 362.575C588.054 362.575 584.147 355 584.147 351.803C584.147 341.957 587.259 341.957 587.259 332.112C587.259 328.915 588.054 327.131 591.1 327.131C594.146 327.131 599.002 328.915 599.002 332.112C599.002 341.957 594.499 341.957 594.499 351.803C594.499 355 594.146 362.575 591.1 362.575Z" fill="white"/>
<path d="M152.946 734.025C150.849 734.025 146.28 730.527 145.375 728.373C143.433 723.832 141.755 721.33 139.371 718.736C136.436 715.562 135.553 709.307 131.403 708.542C128.401 707.986 120.984 706.342 121.514 703.191C122.044 700.04 130.851 693.438 133.853 693.994C140.453 695.222 144.934 703.191 148.752 706.921C153.454 711.531 158.906 716.303 160.937 721.052C162.195 723.971 157.538 727.632 154.756 728.929C154.028 729.276 153.741 734.025 152.99 734.025H152.946Z" fill="white"/>
<path d="M181.641 750.403C180.162 750.403 176.939 749.06 175.857 747.832C172.723 744.334 170.163 737.917 167.514 739.168C164.733 740.511 161.002 745.214 159.744 742.295C158.486 739.376 163.077 736.643 165.836 735.322C173.253 731.755 175.968 735.253 181.883 741.901C183.958 744.241 185.592 741.901 183.362 744.079C182.303 745.121 182.987 750.38 181.641 750.38V750.403Z" fill="white"/>
<path d="M744.51 718.595C743.031 718.595 742.192 720.055 741.11 718.804C739.035 716.464 737.49 712.248 739.72 710.07C746.893 703.12 749.542 706.132 756.716 699.182C758.968 697.004 760.491 695.66 762.543 698C764.618 700.34 763.757 702.471 761.528 704.649C754.354 711.599 756.275 713.776 749.101 720.726C748.041 721.746 745.834 718.572 744.51 718.572V718.595Z" fill="white"/>
<path d="M556.907 367.162C554.987 367.162 551.235 369.27 550.219 367.394C545.805 359.286 543.487 360.676 539.072 352.567C534.658 344.459 534.724 344.413 530.309 336.305C528.808 333.525 533.046 326.042 535.695 324.467C538.344 322.891 543.31 324.837 544.833 327.617C549.248 335.725 545.518 337.973 549.932 346.081C554.347 354.189 557.437 352.336 561.852 360.444C563.353 363.224 563.022 368.182 560.373 369.757C559.512 370.267 557.857 367.162 556.907 367.162Z" fill="white"/>
<path d="M128.665 677.059C127.738 677.059 128.599 669.09 127.738 668.58C125.089 666.982 118.158 664.248 119.681 661.468C122.197 656.835 125.641 656.024 119.151 648.634C117.098 646.271 115.421 638.371 117.672 636.217C119.924 634.039 128.599 635.197 130.651 637.537C132.616 639.784 138.752 646.109 140.165 652.966C141.114 657.53 135.772 663.298 132.528 669.229C131.512 671.105 130.541 677.082 128.643 677.082L128.665 677.059Z" fill="white"/>
<path d="M1118.65 717.646C1115.71 717.646 1109.47 716.742 1109.33 713.615C1109.2 710.418 1115.21 703.375 1118.25 703.236C1124.87 702.958 1125.01 706.086 1131.63 705.808C1138.25 705.53 1138.18 703.931 1144.81 703.653C1147.9 703.514 1147.12 708.773 1147.26 711.97C1147.39 715.167 1148.32 715.26 1145.27 715.399C1138.65 715.677 1138.54 712.943 1131.92 713.221C1125.29 713.499 1125.6 721.237 1118.98 721.515C1118.89 721.515 1118.72 717.646 1118.65 717.646Z" fill="white"/>
<path d="M321.829 724.226C321.829 724.226 321.52 722.72 321.454 722.72C314.832 722.419 314.92 720.102 308.298 719.824C301.676 719.546 301.787 716.766 295.165 716.488C292.118 716.349 285.894 714.844 286.026 711.647C286.159 708.45 292.295 710.975 295.385 711.137C302.007 711.438 302.162 707.871 308.784 708.149C315.406 708.427 315.626 702.704 322.248 702.982C325.295 703.121 329.952 710.349 329.842 713.546C329.709 716.651 324.809 724.226 321.851 724.226H321.829Z" fill="white"/>
<path d="M939.856 688.735C937.252 688.735 936.06 685.538 935.574 682.758C935.022 679.607 935.817 676.457 938.819 675.877C944.889 674.719 945.132 676.179 951.202 675.02C954.204 674.441 954.27 675.947 954.822 679.098C955.374 682.248 955.44 681.576 952.438 682.132C946.368 683.291 947.582 690.333 941.512 691.492C941.181 691.561 940.187 688.758 939.856 688.758V688.735Z" fill="white"/>
<path d="M135.31 706.271C134.934 706.271 133.698 715.075 133.323 714.982C130.343 714.333 125.465 706.202 126.105 703.074C126.171 702.75 131.182 703.862 131.248 703.561C133.191 693.854 130.453 690.75 124.935 685.792C122.617 683.707 122.86 675.437 124.847 673.028C126.833 670.595 133.301 670.641 135.619 672.726C140.629 677.221 138.334 684.101 138.996 689.175C139.768 695.036 136.965 699.368 135.928 704.603C135.861 704.905 142.616 706.41 142.55 706.711C141.998 709.445 137.892 706.295 135.332 706.295L135.31 706.271Z" fill="white"/>
<path d="M333.947 605.591C331.475 605.591 326.177 604.525 325.559 601.907C323.904 594.957 324.146 594.888 322.491 587.938C321.763 584.834 325.405 576.98 328.362 576.216C331.298 575.428 332.689 581.961 333.417 585.065C335.073 592.015 342.048 590.185 343.703 597.135C344.432 600.239 336.971 599.127 334.013 599.915C333.572 600.031 334.41 605.591 333.947 605.591Z" fill="white"/>
<path d="M126.456 640.571C124.933 640.571 126.081 632.463 124.977 631.166C122.947 628.78 119.15 625.977 121.424 623.868C127.074 618.61 126.478 615.876 121.755 606.331C120.342 603.482 121.975 598.849 124.668 597.366C127.361 595.883 134.734 595.629 136.146 598.455C138.265 602.718 136.72 611.081 136.676 617.984C136.654 623.266 133.277 625.953 127.648 631.212C126.589 632.185 127.759 640.548 126.456 640.548V640.571Z" fill="white"/>
<path d="M1311.79 639.552C1310.27 639.552 1306.69 636.865 1305.59 635.567C1300.69 629.729 1305.13 622.316 1305.48 617.127C1305.99 609.829 1305.79 603.181 1307.97 599.752C1309.65 597.088 1310.47 601.235 1313.01 602.995C1315.55 604.779 1319.17 603.714 1317.49 606.378C1311.68 615.505 1313.03 618.864 1317.66 624.378C1319.67 626.787 1319.45 634.085 1317.16 636.193C1316.1 637.166 1313.1 639.552 1311.79 639.552Z" fill="white"/>
<path d="M924.405 365.518C923.567 365.518 920.631 372.259 919.836 371.842C913.214 368.367 915.4 363.78 908.778 360.305C906.063 358.869 902.928 354.56 904.297 351.688C905.665 348.815 909.683 351.247 912.398 352.684C919.02 356.159 920.123 353.819 926.745 357.294C929.46 358.73 934.89 364.174 933.522 367.024C932.55 369.062 926.414 365.518 924.383 365.518H924.405Z" fill="white"/>
<path d="M265.52 788.187C263.423 788.187 261.061 785.083 260.156 782.929C257.662 777.137 261.701 775.237 259.229 769.446C256.757 763.654 249.737 766.967 247.265 761.175C246.007 758.256 252.497 757.793 255.278 756.473C258.037 755.152 256.271 753.415 257.507 756.334C260.002 762.125 265.983 759.299 268.456 765.09C270.928 770.882 266.05 773.199 268.544 778.99C269.802 781.909 271.987 787.678 269.206 788.975C268.478 789.322 266.292 788.211 265.542 788.211L265.52 788.187Z" fill="white"/>
<path d="M904.538 398.505C901.868 398.505 898.49 395.146 898.049 392.297C897.563 389.146 901.382 390.745 904.384 390.235C911.801 388.984 914.758 381.154 918.334 376.08C920.144 373.509 925.331 374.065 927.782 375.965C930.232 377.864 933.896 384.165 932.086 386.737C929.128 390.953 922.749 392.204 918.864 394.104C914.736 396.142 910.079 397.926 905.664 398.668C905.377 398.714 904.803 398.505 904.516 398.505H904.538Z" fill="white"/>
<path d="M339.464 708.009C338.25 708.009 336.506 709.955 335.49 709.075C333.129 707.059 331.23 701.013 333.151 698.534C340.324 689.267 338.559 687.761 345.732 678.495C347.653 676.016 357.74 675.252 360.102 677.267C362.464 679.283 355.798 682.943 353.877 685.422C346.704 694.688 352.95 700.016 345.776 709.283C344.695 710.696 341.097 707.986 339.486 707.986L339.464 708.009Z" fill="white"/>
<path d="M360.434 770.511C359.771 770.511 358.072 767.939 357.409 767.661C354.562 766.503 354.032 760.341 355.136 757.375C358.999 746.951 354.849 745.259 358.712 734.835C359.815 731.846 367.387 731.846 370.234 733.004C373.082 734.163 369.991 736.016 368.888 739.005C365.025 749.429 368.998 751.051 365.135 761.476C364.296 763.769 362.619 770.534 360.411 770.534L360.434 770.511Z" fill="white"/>
<path d="M1113.15 640.757C1111.28 640.757 1108.72 637.398 1107.68 635.591C1102.71 626.903 1100.2 628.478 1095.23 619.791C1093.66 617.057 1096.84 609.83 1099.45 608.185C1102.05 606.54 1108.74 607.559 1110.31 610.293C1115.27 618.98 1114.88 619.235 1119.84 627.922C1121.41 630.656 1121.06 639.737 1118.43 641.382C1117.55 641.938 1114.13 640.757 1113.15 640.757Z" fill="white"/>
<path d="M322.91 749.36C322.226 749.36 320.085 749.314 319.401 749.036C316.575 747.854 320.217 742.178 321.343 739.19C324.654 730.503 325.669 730.92 328.98 722.232C330.106 719.267 330.393 711.576 333.218 712.757C336.044 713.939 337.015 722.163 335.889 725.128C332.578 733.815 331.342 733.283 328.031 741.97C327.17 744.24 325.095 749.337 322.91 749.337V749.36Z" fill="white"/>
<path d="M320.701 707.452C319.112 707.452 320.745 701.591 319.664 700.224C314.145 693.275 310.547 696.425 305.029 689.475C303.087 687.02 303.219 682.271 305.559 680.232C307.899 678.193 314.94 676.664 316.882 679.12C322.401 686.07 321.672 686.695 327.191 693.645C329.133 696.101 324.123 698.626 321.783 700.665C320.745 701.568 321.959 707.452 320.723 707.452H320.701Z" fill="white"/>
<path d="M882.487 633.876C882.355 633.876 881.869 635.984 881.737 635.984C878.69 635.752 875.291 627.852 875.512 624.655C876.064 616.547 883.017 617.057 883.569 608.949C883.789 605.752 881.185 600.076 884.187 600.308C887.233 600.539 889.86 606.215 889.639 609.412C889.087 617.52 891.736 617.729 891.184 625.837C890.985 628.895 885.379 633.899 882.509 633.899L882.487 633.876Z" fill="white"/>
<path d="M1129.69 661.49C1127.21 661.49 1126.49 657.761 1125.87 655.143C1125.14 652.039 1124.61 646.038 1127.57 645.274C1134.19 643.536 1134.52 644.95 1141.14 643.212C1147.76 641.475 1147.92 642.1 1154.54 640.363C1157.48 639.575 1157.08 643.652 1157.83 646.757C1158.56 649.861 1159.15 646.502 1156.2 647.289C1149.57 649.027 1151.25 656.093 1144.63 657.83C1138.01 659.568 1137.59 657.83 1130.97 659.568C1130.52 659.683 1130.11 661.49 1129.66 661.49H1129.69Z" fill="white"/>
<path d="M1080.02 769.169C1077.84 769.169 1078.83 762.682 1077.97 760.435C1075.5 754.064 1071.22 755.894 1068.72 749.524C1066.23 743.153 1070.6 741.276 1068.13 734.906C1066.98 731.94 1065.06 729.624 1067.88 728.396C1070.71 727.191 1076.23 727.956 1077.37 730.921C1079.85 737.292 1081.63 736.527 1084.13 742.898C1086.62 749.269 1082.27 751.122 1084.75 757.493C1085.89 760.458 1084.13 761.663 1081.33 762.891C1080.64 763.192 1080.71 769.146 1080.02 769.146V769.169Z" fill="white"/>
<path d="M327.324 643.306C326.397 643.306 326.198 636.309 325.338 635.8C322.689 634.224 319.025 630.842 320.526 628.062C324.94 619.954 327.699 621.622 332.114 613.514C333.637 610.734 337.345 607.282 339.994 608.88C342.643 610.479 342.93 616.317 341.407 619.097C336.992 627.205 339.84 628.919 335.425 637.028C334.41 638.904 329.222 643.329 327.302 643.329L327.324 643.306Z" fill="white"/>
<path d="M310.791 655.051C310.415 655.051 310.04 658.665 309.665 658.596C303.043 657.136 303.418 655.237 296.796 653.8C290.174 652.364 289.424 656.117 282.802 654.657C279.822 654.009 280.506 649.63 281.124 646.503C281.742 643.375 283.221 636.889 286.201 637.537C292.823 638.997 292.757 639.298 299.379 640.734C306.001 642.171 305.361 645.391 311.983 646.85C314.963 647.499 313.726 650.372 313.108 653.499C312.557 656.233 313.329 655.051 310.769 655.051H310.791Z" fill="white"/>
<path d="M346.111 773.638C346.111 773.638 346.022 772.758 345.956 772.758C339.334 772.457 339.312 773.105 332.69 772.827C326.068 772.549 325.869 777.391 319.247 777.113C316.201 776.974 313.42 770.58 313.553 767.383C313.685 764.186 316.687 762.634 319.821 762.773C326.443 763.074 326.62 758.858 333.242 759.159C339.864 759.46 339.93 757.955 346.552 758.233C349.598 758.372 354.741 765.97 354.609 769.167C354.476 772.271 349.09 773.638 346.133 773.638H346.111Z" fill="white"/>
<path d="M1130.81 604.642C1129.2 604.642 1128.78 599.105 1127.7 597.668C1123.29 591.877 1118.3 596.07 1113.88 590.278C1111.99 587.776 1116.69 581.661 1119.07 579.668C1121.46 577.676 1126.58 575.545 1128.47 578.023C1132.89 583.815 1130 586.247 1134.41 592.039C1136.31 594.541 1133.35 593.267 1130.97 595.259C1129.95 596.116 1132.03 604.618 1130.81 604.618V604.642Z" fill="white"/>
<path d="M1094.37 778.69C1091.43 778.69 1085.87 772.296 1085.74 769.192C1085.61 765.995 1090.97 759.902 1094.02 759.763C1100.64 759.485 1100.77 762.612 1107.39 762.334C1114.02 762.056 1113.88 758.767 1120.51 758.489C1123.64 758.35 1124.43 764.327 1124.54 767.524C1124.65 770.721 1124.08 772.087 1121.03 772.226C1114.41 772.504 1114.61 777.416 1107.99 777.694C1101.37 777.972 1101.1 771.161 1094.48 771.462C1094.39 771.462 1094.46 778.713 1094.37 778.713V778.69Z" fill="white"/>
<path d="M651.823 503.867C651.337 503.867 650.167 510.771 649.682 510.632C646.746 509.798 650.852 505.443 651.646 502.361C653.302 495.991 646.415 494.022 648.071 487.651C648.865 484.57 653.081 485.404 656.017 486.238C658.953 487.072 658.798 487.396 658.003 490.5C656.348 496.871 663.985 499.049 662.33 505.419C661.668 507.991 654.251 503.867 651.823 503.867Z" fill="white"/>
<path d="M713.63 612.98C713.63 612.98 713.63 605.891 713.542 605.891C710.495 605.706 710.827 607.351 710.981 604.177C711.533 593.752 703.653 593.289 704.205 582.864C704.381 579.667 711.709 582.794 714.734 582.98C717.78 583.165 723.342 580.779 723.166 583.976C722.614 594.401 718.044 594.123 717.493 604.547C717.338 607.629 716.521 612.98 713.608 612.98H713.63Z" fill="white"/>
<path d="M522.672 310.984C520.067 310.984 520.2 306.536 519.692 303.756C518.853 299.122 514.571 299.98 513.732 295.346C513.18 292.196 517.374 290.875 520.376 290.296C523.356 289.717 525.895 289.717 526.468 292.844C527.285 297.478 525.806 297.779 526.645 302.412C527.197 305.563 526.159 305.215 523.157 305.818C522.804 305.887 523.025 311.007 522.672 311.007V310.984Z" fill="white"/>
<path d="M1319.52 608.509C1314 608.509 1314 604.223 1308.48 604.223C1305.43 604.223 1303.62 603.482 1303.62 600.285C1303.62 597.088 1305.43 597.482 1308.48 597.482C1314 597.482 1314 591.412 1319.52 591.412C1322.56 591.412 1320.31 597.088 1320.31 600.285C1320.31 603.482 1322.56 608.509 1319.52 608.509Z" fill="white"/>
<path d="M1104.32 674.812C1102.29 674.812 1096.03 678.402 1095.05 676.387C1093.69 673.538 1098.37 666.194 1101.1 664.757C1102.76 663.877 1102.01 662.325 1103.66 661.445C1106.4 660.008 1114.39 662.649 1115.76 665.522C1117.13 668.371 1113.2 674.325 1110.48 675.761C1108.83 676.642 1106.73 672.217 1105.08 673.074C1104.28 673.491 1105.16 674.812 1104.32 674.812Z" fill="white"/>
<path d="M349.397 735.3C348.558 735.3 348.382 729.022 347.587 728.605C345.932 727.747 347.168 725.153 345.512 724.273C342.797 722.836 339.089 722.975 340.458 720.126C341.826 717.253 343.879 720.566 346.616 722.002C348.271 722.859 349.066 721.215 350.722 722.072C353.437 723.508 356.483 724.944 355.114 727.794C354.143 729.832 351.428 735.3 349.397 735.3Z" fill="white"/>
<path d="M72.268 487.142C67.7871 487.142 67.2132 484.061 64.0347 481.351C61.1431 478.872 51.7399 480.98 50.1285 476.323C49.0911 473.312 52.7332 463.79 55.6027 462.702C58.4722 461.613 59.002 469.536 60.0394 472.524C62.4233 479.358 69.6633 477.482 76.8372 475.211C79.7508 474.285 86.3066 477.065 87.1674 480.146C88.0504 483.204 82.0023 482.138 79.0666 483.065C76.1087 483.991 74.8064 487.165 72.2238 487.165L72.268 487.142Z" fill="white"/>
<path d="M1339.38 436.961C1338.81 436.961 1337.04 438.837 1336.47 438.652C1333.58 437.656 1328.77 429.084 1329.74 426.05C1331.37 420.86 1336.56 415.88 1339.67 413.841C1343.53 411.316 1350.31 416.204 1354.02 415.602C1355.87 415.3 1358.23 416.181 1359.78 415.717C1362.72 414.837 1368.37 412.103 1369.18 415.185C1370.02 418.266 1364.3 420.721 1361.37 421.602C1359.18 422.25 1358.32 429.942 1356.23 430.289C1349.4 431.424 1341.48 425.077 1340.05 429.64C1339.27 432.073 1341.7 436.961 1339.38 436.961Z" fill="white"/>
<path d="M1366.84 493.535C1365.16 493.535 1363.97 486.006 1362.16 485.658C1359.16 485.079 1351.88 484.5 1352.41 481.349C1352.96 478.199 1360.62 476.507 1363.64 477.087C1370.18 478.338 1373.33 476.716 1375.87 470.855C1377.13 467.936 1379.29 470.438 1382.07 471.758C1384.85 473.079 1392.65 475.28 1391.39 478.199C1389.49 482.6 1379.95 480.631 1376.73 482.925C1373.51 485.218 1371.37 493.535 1366.86 493.535H1366.84Z" fill="white"/>
</g>
<defs>
<clipPath id="clip0_2090_127">
<rect width="1440" height="759" fill="white"/>
</clipPath>
</defs>
</svg>
