<svg width="50" height="49" viewBox="0 0 50 49" fill="none" xmlns="http://www.w3.org/2000/svg">
<g clip-path="url(#clip0_2953_1267)">
<path d="M16.882 39.7071L16.2562 39.3458L17.5589 37.0894L18.1847 37.4507L16.882 39.7071ZM40.2372 32.9208L39.8763 33.5458L38.0166 32.4721L38.3774 31.8471L40.2372 32.9208ZM11.9572 17.4267L10.0957 16.352L10.4565 15.727L12.318 16.8017L11.9572 17.4267ZM32.7741 12.1812L32.1483 11.8199L33.45 9.56519L34.0759 9.92651L32.7741 12.1812Z" fill="#E3E3E3"/>
<path d="M16.882 39.7071L16.2134 40.8653L17.3715 41.5339L18.0401 40.3758L16.882 39.7071ZM16.2562 39.3458L15.098 38.6772L14.4294 39.8353L15.5875 40.5039L16.2562 39.3458ZM17.5589 37.0894L18.2275 35.9313L17.0694 35.2626L16.4008 36.4208L17.5589 37.0894ZM18.1847 37.4507L19.3429 38.1194L20.0115 36.9612L18.8534 36.2926L18.1847 37.4507ZM40.2372 32.9208L41.3953 33.5895L42.0639 32.4313L40.9058 31.7627L40.2372 32.9208ZM39.8763 33.5458L39.2077 34.704L40.3658 35.3726L41.0345 34.2145L39.8763 33.5458ZM38.0166 32.4721L36.8584 31.8034L36.1898 32.9616L37.3479 33.6302L38.0166 32.4721ZM38.3774 31.8471L39.0461 30.689L37.8879 30.0203L37.2193 31.1784L38.3774 31.8471ZM11.9572 17.4267L11.2885 18.5848L12.4466 19.2535L13.1153 18.0953L11.9572 17.4267ZM10.0957 16.352L8.93757 15.6833L8.26892 16.8415L9.42705 17.5101L10.0957 16.352ZM10.4565 15.727L11.1252 14.5688L9.96706 13.9002L9.29841 15.0583L10.4565 15.727ZM12.318 16.8017L13.4761 17.4703L14.1448 16.3122L12.9866 15.6436L12.318 16.8017ZM32.7741 12.1812L32.1054 13.3394L33.2636 14.008L33.9322 12.8499L32.7741 12.1812ZM32.1483 11.8199L30.9901 11.1512L30.3215 12.3094L31.4796 12.978L32.1483 11.8199ZM33.45 9.56519L34.1187 8.40705L32.9605 7.7384L32.2919 8.89654L33.45 9.56519ZM34.0759 9.92651L35.234 10.5952L35.9026 9.43703L34.7445 8.76838L34.0759 9.92651ZM16.882 39.7071L17.5507 38.549L16.9248 38.1877L16.2562 39.3458L15.5875 40.5039L16.2134 40.8653L16.882 39.7071ZM16.2562 39.3458L17.4143 40.0145L18.717 37.7581L17.5589 37.0894L16.4008 36.4208L15.098 38.6772L16.2562 39.3458ZM17.5589 37.0894L16.8903 38.2475L17.5161 38.6089L18.1847 37.4507L18.8534 36.2926L18.2275 35.9313L17.5589 37.0894ZM18.1847 37.4507L17.0266 36.7821L15.7239 39.0385L16.882 39.7071L18.0401 40.3758L19.3429 38.1194L18.1847 37.4507ZM40.2372 32.9208L39.079 32.2522L38.7182 32.8772L39.8763 33.5458L41.0345 34.2145L41.3953 33.5895L40.2372 32.9208ZM39.8763 33.5458L40.545 32.3877L38.6852 31.314L38.0166 32.4721L37.3479 33.6302L39.2077 34.704L39.8763 33.5458ZM38.0166 32.4721L39.1747 33.1407L39.5355 32.5157L38.3774 31.8471L37.2193 31.1784L36.8584 31.8034L38.0166 32.4721ZM38.3774 31.8471L37.7088 33.0052L39.5685 34.079L40.2372 32.9208L40.9058 31.7627L39.0461 30.689L38.3774 31.8471ZM11.9572 17.4267L12.6258 16.2685L10.7644 15.1938L10.0957 16.352L9.42705 17.5101L11.2885 18.5848L11.9572 17.4267ZM10.0957 16.352L11.2538 17.0206L11.6147 16.3956L10.4565 15.727L9.29841 15.0583L8.93757 15.6833L10.0957 16.352ZM10.4565 15.727L9.78789 16.8851L11.6493 17.9598L12.318 16.8017L12.9866 15.6436L11.1252 14.5688L10.4565 15.727ZM12.318 16.8017L11.1599 16.133L10.799 16.758L11.9572 17.4267L13.1153 18.0953L13.4761 17.4703L12.318 16.8017ZM32.7741 12.1812L33.4427 11.0231L32.8169 10.6618L32.1483 11.8199L31.4796 12.978L32.1054 13.3394L32.7741 12.1812ZM32.1483 11.8199L33.3064 12.4885L34.6081 10.2338L33.45 9.56519L32.2919 8.89654L30.9901 11.1512L32.1483 11.8199ZM33.45 9.56519L32.7814 10.7233L33.4072 11.0846L34.0759 9.92651L34.7445 8.76838L34.1187 8.40705L33.45 9.56519ZM34.0759 9.92651L32.9177 9.25786L31.616 11.5126L32.7741 12.1812L33.9322 12.8499L35.234 10.5952L34.0759 9.92651Z" fill="#E3E3E3"/>
</g>
<g clip-path="url(#clip1_2953_1267)">
<path d="M29.9788 41.151L29.2807 41.338L28.6066 38.8223L29.3047 38.6352L29.9788 41.151ZM41.6938 19.838L41.8805 20.5351L39.8044 21.0914L39.6176 20.3943L41.6938 19.838ZM10.7389 28.8795L8.66458 29.4353L8.4778 28.7382L10.5521 28.1824L10.7389 28.8795ZM21.7524 10.4498L21.0544 10.6369L20.3805 8.12206L21.0786 7.93502L21.7524 10.4498Z" fill="#E3E3E3"/>
<path d="M29.9788 41.151L30.3249 42.4427L31.6166 42.0966L31.2705 40.8049L29.9788 41.151ZM29.2807 41.338L27.989 41.6841L28.3351 42.9759L29.6268 42.6298L29.2807 41.338ZM28.6066 38.8223L28.2605 37.5305L26.9688 37.8767L27.3149 39.1684L28.6066 38.8223ZM29.3047 38.6352L30.5964 38.2891L30.2503 36.9974L28.9585 37.3435L29.3047 38.6352ZM41.6938 19.838L42.9855 19.4919L42.6394 18.2002L41.3476 18.5463L41.6938 19.838ZM41.8805 20.5351L42.2267 21.8268L43.5184 21.4807L43.1723 20.189L41.8805 20.5351ZM39.8044 21.0914L38.5126 21.4375L38.8588 22.7293L40.1505 22.3831L39.8044 21.0914ZM39.6176 20.3943L39.2715 19.1026L37.9797 19.4487L38.3259 20.7404L39.6176 20.3943ZM10.7389 28.8795L11.085 30.1712L12.3767 29.8251L12.0306 28.5334L10.7389 28.8795ZM8.66458 29.4353L7.37285 29.7814L7.71897 31.0731L9.0107 30.727L8.66458 29.4353ZM8.4778 28.7382L8.13168 27.4465L6.83995 27.7926L7.18606 29.0843L8.4778 28.7382ZM10.5521 28.1824L11.8438 27.8363L11.4977 26.5445L10.206 26.8907L10.5521 28.1824ZM21.7524 10.4498L22.0985 11.7416L23.3903 11.3954L23.0441 10.1037L21.7524 10.4498ZM21.0544 10.6369L19.7626 10.983L20.1088 12.2747L21.4005 11.9286L21.0544 10.6369ZM20.3805 8.12206L20.0344 6.83032L18.7427 7.17644L19.0888 8.46818L20.3805 8.12206ZM21.0786 7.93502L22.3703 7.5889L22.0242 6.29717L20.7324 6.64329L21.0786 7.93502ZM29.9788 41.151L29.6326 39.8593L28.9346 40.0463L29.2807 41.338L29.6268 42.6298L30.3249 42.4427L29.9788 41.151ZM29.2807 41.338L30.5725 40.9919L29.8984 38.4762L28.6066 38.8223L27.3149 39.1684L27.989 41.6841L29.2807 41.338ZM28.6066 38.8223L28.9527 40.114L29.6508 39.927L29.3047 38.6352L28.9585 37.3435L28.2605 37.5305L28.6066 38.8223ZM29.3047 38.6352L28.0129 38.9814L28.687 41.4971L29.9788 41.151L31.2705 40.8049L30.5964 38.2891L29.3047 38.6352ZM41.6938 19.838L40.402 20.1841L40.5888 20.8812L41.8805 20.5351L43.1723 20.189L42.9855 19.4919L41.6938 19.838ZM41.8805 20.5351L41.5344 19.2434L39.4583 19.7997L39.8044 21.0914L40.1505 22.3831L42.2267 21.8268L41.8805 20.5351ZM39.8044 21.0914L41.0961 20.7453L40.9093 20.0482L39.6176 20.3943L38.3259 20.7404L38.5126 21.4375L39.8044 21.0914ZM39.6176 20.3943L39.9637 21.686L42.0399 21.1297L41.6938 19.838L41.3476 18.5463L39.2715 19.1026L39.6176 20.3943ZM10.7389 28.8795L10.3928 27.5877L8.31846 28.1436L8.66458 29.4353L9.0107 30.727L11.085 30.1712L10.7389 28.8795ZM8.66458 29.4353L9.95631 29.0892L9.76953 28.3921L8.4778 28.7382L7.18606 29.0843L7.37285 29.7814L8.66458 29.4353ZM8.4778 28.7382L8.82392 30.0299L10.8982 29.4741L10.5521 28.1824L10.206 26.8907L8.13168 27.4465L8.4778 28.7382ZM10.5521 28.1824L9.26035 28.5285L9.44714 29.2256L10.7389 28.8795L12.0306 28.5334L11.8438 27.8363L10.5521 28.1824ZM21.7524 10.4498L21.4063 9.15809L20.7083 9.34513L21.0544 10.6369L21.4005 11.9286L22.0985 11.7416L21.7524 10.4498ZM21.0544 10.6369L22.3461 10.2907L21.6723 7.77594L20.3805 8.12206L19.0888 8.46818L19.7626 10.983L21.0544 10.6369ZM20.3805 8.12206L20.7266 9.41379L21.4247 9.22675L21.0786 7.93502L20.7324 6.64329L20.0344 6.83032L20.3805 8.12206ZM21.0786 7.93502L19.7868 8.28114L20.4607 10.7959L21.7524 10.4498L23.0441 10.1037L22.3703 7.5889L21.0786 7.93502Z" fill="#E3E3E3"/>
</g>
<g clip-path="url(#clip2_2953_1267)">
<path d="M34.0864 39.3475L33.4606 39.7088L32.1564 37.4499L32.7822 37.0886L34.0864 39.3475ZM39.8812 15.7281L40.2425 16.3539L38.3811 17.4287L38.0198 16.8028L39.8812 15.7281ZM12.3217 32.4741L10.4619 33.5478L10.1006 32.922L11.9603 31.8482L12.3217 32.4741ZM18.1929 11.8191L17.567 12.1804L16.2667 9.92822L16.8926 9.56689L18.1929 11.8191Z" fill="#E3E3E3"/>
<path d="M34.0864 39.3475L34.7551 40.5056L35.9132 39.837L35.2446 38.6789L34.0864 39.3475ZM33.4606 39.7088L32.3025 40.3775L32.9711 41.5356L34.1292 40.867L33.4606 39.7088ZM32.1564 37.4499L31.4877 36.2918L30.3296 36.9604L30.9983 38.1186L32.1564 37.4499ZM32.7822 37.0886L33.9404 36.4199L33.2717 35.2618L32.1136 35.9304L32.7822 37.0886ZM39.8812 15.7281L41.0393 15.0595L40.3707 13.9013L39.2126 14.57L39.8812 15.7281ZM40.2425 16.3539L40.9112 17.5121L42.0693 16.8434L41.4007 15.6853L40.2425 16.3539ZM38.3811 17.4287L37.2229 18.0973L37.8916 19.2554L39.0497 18.5868L38.3811 17.4287ZM38.0198 16.8028L37.3511 15.6447L36.193 16.3133L36.8616 17.4715L38.0198 16.8028ZM12.3217 32.4741L12.9903 33.6322L14.1485 32.9635L13.4798 31.8054L12.3217 32.4741ZM10.4619 33.5478L9.30378 34.2164L9.97243 35.3746L11.1306 34.7059L10.4619 33.5478ZM10.1006 32.922L9.43194 31.7638L8.2738 32.4325L8.94245 33.5906L10.1006 32.922ZM11.9603 31.8482L13.1185 31.1796L12.4498 30.0214L11.2917 30.6901L11.9603 31.8482ZM18.1929 11.8191L18.8615 12.9772L20.0197 12.3086L19.351 11.1504L18.1929 11.8191ZM17.567 12.1804L16.4089 12.849L17.0775 14.0072L18.2357 13.3385L17.567 12.1804ZM16.2667 9.92822L15.5981 8.77009L14.44 9.43874L15.1086 10.5969L16.2667 9.92822ZM16.8926 9.56689L18.0507 8.89824L17.3821 7.74011L16.2239 8.40876L16.8926 9.56689ZM34.0864 39.3475L33.4178 38.1894L32.7919 38.5507L33.4606 39.7088L34.1292 40.867L34.7551 40.5056L34.0864 39.3475ZM33.4606 39.7088L34.6187 39.0402L33.3145 36.7813L32.1564 37.4499L30.9983 38.1186L32.3025 40.3775L33.4606 39.7088ZM32.1564 37.4499L32.825 38.608L33.4509 38.2467L32.7822 37.0886L32.1136 35.9304L31.4877 36.2918L32.1564 37.4499ZM32.7822 37.0886L31.6241 37.7572L32.9283 40.0162L34.0864 39.3475L35.2446 38.6789L33.9404 36.4199L32.7822 37.0886ZM39.8812 15.7281L38.7231 16.3968L39.0844 17.0226L40.2425 16.3539L41.4007 15.6853L41.0393 15.0595L39.8812 15.7281ZM40.2425 16.3539L39.5739 15.1958L37.7124 16.2705L38.3811 17.4287L39.0497 18.5868L40.9112 17.5121L40.2425 16.3539ZM38.3811 17.4287L39.5392 16.76L39.1779 16.1342L38.0198 16.8028L36.8616 17.4715L37.2229 18.0973L38.3811 17.4287ZM38.0198 16.8028L38.6884 17.9609L40.5499 16.8862L39.8812 15.7281L39.2126 14.57L37.3511 15.6447L38.0198 16.8028ZM12.3217 32.4741L11.653 31.3159L9.79326 32.3897L10.4619 33.5478L11.1306 34.7059L12.9903 33.6322L12.3217 32.4741ZM10.4619 33.5478L11.62 32.8791L11.2587 32.2533L10.1006 32.922L8.94245 33.5906L9.30378 34.2164L10.4619 33.5478ZM10.1006 32.922L10.7692 34.0801L12.629 33.0064L11.9603 31.8482L11.2917 30.6901L9.43194 31.7638L10.1006 32.922ZM11.9603 31.8482L10.8022 32.5169L11.1635 33.1427L12.3217 32.4741L13.4798 31.8054L13.1185 31.1796L11.9603 31.8482ZM18.1929 11.8191L17.5242 10.6609L16.8984 11.0223L17.567 12.1804L18.2357 13.3385L18.8615 12.9772L18.1929 11.8191ZM17.567 12.1804L18.7252 11.5117L17.4249 9.25957L16.2667 9.92822L15.1086 10.5969L16.4089 12.849L17.567 12.1804ZM16.2667 9.92822L16.9354 11.0864L17.5612 10.725L16.8926 9.56689L16.2239 8.40876L15.5981 8.77009L16.2667 9.92822ZM16.8926 9.56689L15.7344 10.2355L17.0347 12.4877L18.1929 11.8191L19.351 11.1504L18.0507 8.89824L16.8926 9.56689Z" fill="#E3E3E3"/>
</g>
<g clip-path="url(#clip3_2953_1267)">
<path d="M37.5784 36.5397L37.0681 37.05L35.2265 35.2083L35.7368 34.698L37.5784 36.5397ZM37.0681 12.2239L37.5784 12.7342L36.0592 14.2534L35.5489 13.7431L37.0681 12.2239ZM14.7818 35.5308L13.2626 37.05L12.7523 36.5397L14.2715 35.0205L14.7818 35.5308ZM15.1043 14.0656L14.594 14.5759L12.7523 12.7342L13.2626 12.2239L15.1043 14.0656Z" fill="#E3E3E3"/>
<path d="M37.5784 36.5397L38.524 37.4853L39.4696 36.5397L38.524 35.5941L37.5784 36.5397ZM37.0681 37.05L36.1225 37.9956L37.0681 38.9412L38.0137 37.9956L37.0681 37.05ZM35.2265 35.2083L34.2808 34.2627L33.3352 35.2083L34.2808 36.154L35.2265 35.2083ZM35.7368 34.698L36.6824 33.7524L35.7368 32.8068L34.7912 33.7524L35.7368 34.698ZM37.0681 12.2239L38.0137 11.2783L37.0681 10.3327L36.1225 11.2783L37.0681 12.2239ZM37.5784 12.7342L38.524 13.6798L39.4696 12.7342L38.524 11.7886L37.5784 12.7342ZM36.0592 14.2534L35.1136 15.199L36.0592 16.1446L37.0049 15.199L36.0592 14.2534ZM35.5489 13.7431L34.6033 12.7975L33.6577 13.7431L34.6033 14.6887L35.5489 13.7431ZM14.7818 35.5308L15.7274 36.4764L16.673 35.5308L15.7274 34.5852L14.7818 35.5308ZM13.2626 37.05L12.317 37.9956L13.2626 38.9412L14.2083 37.9956L13.2626 37.05ZM12.7523 36.5397L11.8067 35.5941L10.8611 36.5397L11.8067 37.4853L12.7523 36.5397ZM14.2715 35.0205L15.2171 34.0749L14.2715 33.1293L13.3259 34.0749L14.2715 35.0205ZM15.1043 14.0656L16.0499 15.0112L16.9955 14.0656L16.0499 13.12L15.1043 14.0656ZM14.594 14.5759L13.6484 15.5215L14.594 16.4671L15.5396 15.5215L14.594 14.5759ZM12.7523 12.7342L11.8067 11.7886L10.8611 12.7342L11.8067 13.6798L12.7523 12.7342ZM13.2626 12.2239L14.2083 11.2783L13.2626 10.3327L12.317 11.2783L13.2626 12.2239ZM37.5784 36.5397L36.6328 35.5941L36.1225 36.1044L37.0681 37.05L38.0137 37.9956L38.524 37.4853L37.5784 36.5397ZM37.0681 37.05L38.0137 36.1044L36.1721 34.2627L35.2265 35.2083L34.2808 36.154L36.1225 37.9956L37.0681 37.05ZM35.2265 35.2083L36.1721 36.154L36.6824 35.6437L35.7368 34.698L34.7912 33.7524L34.2808 34.2627L35.2265 35.2083ZM35.7368 34.698L34.7912 35.6437L36.6328 37.4853L37.5784 36.5397L38.524 35.5941L36.6824 33.7524L35.7368 34.698ZM37.0681 12.2239L36.1225 13.1695L36.6328 13.6798L37.5784 12.7342L38.524 11.7886L38.0137 11.2783L37.0681 12.2239ZM37.5784 12.7342L36.6328 11.7886L35.1136 13.3078L36.0592 14.2534L37.0049 15.199L38.524 13.6798L37.5784 12.7342ZM36.0592 14.2534L37.0049 13.3078L36.4946 12.7975L35.5489 13.7431L34.6033 14.6887L35.1136 15.199L36.0592 14.2534ZM35.5489 13.7431L36.4946 14.6887L38.0137 13.1695L37.0681 12.2239L36.1225 11.2783L34.6033 12.7975L35.5489 13.7431ZM14.7818 35.5308L13.8362 34.5852L12.317 36.1044L13.2626 37.05L14.2083 37.9956L15.7274 36.4764L14.7818 35.5308ZM13.2626 37.05L14.2083 36.1044L13.698 35.5941L12.7523 36.5397L11.8067 37.4853L12.317 37.9956L13.2626 37.05ZM12.7523 36.5397L13.698 37.4853L15.2171 35.9661L14.2715 35.0205L13.3259 34.0749L11.8067 35.5941L12.7523 36.5397ZM14.2715 35.0205L13.3259 35.9661L13.8362 36.4764L14.7818 35.5308L15.7274 34.5852L15.2171 34.0749L14.2715 35.0205ZM15.1043 14.0656L14.1587 13.12L13.6484 13.6303L14.594 14.5759L15.5396 15.5215L16.0499 15.0112L15.1043 14.0656ZM14.594 14.5759L15.5396 13.6303L13.698 11.7886L12.7523 12.7342L11.8067 13.6798L13.6484 15.5215L14.594 14.5759ZM12.7523 12.7342L13.698 13.6798L14.2083 13.1695L13.2626 12.2239L12.317 11.2783L11.8067 11.7886L12.7523 12.7342ZM13.2626 12.2239L12.317 13.1695L14.1587 15.0112L15.1043 14.0656L16.0499 13.12L14.2083 11.2783L13.2626 12.2239Z" fill="#E3E3E3"/>
</g>
<g clip-path="url(#clip4_2953_1267)">
<path d="M41.8788 28.7384L41.6918 29.4364L39.1751 28.7621L39.3622 28.064L41.8788 28.7384ZM29.2778 7.93614L29.9749 8.12293L29.4191 10.1972L28.722 10.0104L29.2778 7.93614ZM21.631 39.2627L21.0747 41.3389L20.3776 41.1521L20.9339 39.0759L21.631 39.2627ZM11.1777 20.512L10.9906 21.2101L8.47584 20.5362L8.66288 19.8382L11.1777 20.512Z" fill="#E3E3E3"/>
<path d="M41.8788 28.7384L43.1706 29.0845L43.5167 27.7928L42.225 27.4466L41.8788 28.7384ZM41.6918 29.4364L41.3457 30.7281L42.6374 31.0743L42.9835 29.7825L41.6918 29.4364ZM39.1751 28.7621L37.8834 28.4159L37.5373 29.7077L38.829 30.0538L39.1751 28.7621ZM39.3622 28.064L39.7083 26.7723L38.4165 26.4262L38.0704 27.7179L39.3622 28.064ZM29.2778 7.93614L29.6239 6.64441L28.3322 6.29829L27.9861 7.59002L29.2778 7.93614ZM29.9749 8.12293L31.2666 8.46904L31.6128 7.17731L30.321 6.83119L29.9749 8.12293ZM29.4191 10.1972L29.073 11.4889L30.3647 11.8351L30.7108 10.5433L29.4191 10.1972ZM28.722 10.0104L27.4303 9.66431L27.0842 10.956L28.3759 11.3022L28.722 10.0104ZM21.631 39.2627L22.9228 39.6088L23.2689 38.3171L21.9772 37.971L21.631 39.2627ZM21.0747 41.3389L20.7286 42.6306L22.0203 42.9767L22.3665 41.685L21.0747 41.3389ZM20.3776 41.1521L19.0859 40.806L18.7398 42.0977L20.0315 42.4438L20.3776 41.1521ZM20.9339 39.0759L21.2801 37.7842L19.9883 37.4381L19.6422 38.7298L20.9339 39.0759ZM11.1777 20.512L12.4694 20.8581L12.8155 19.5664L11.5238 19.2203L11.1777 20.512ZM10.9906 21.2101L10.6445 22.5018L11.9363 22.8479L12.2824 21.5562L10.9906 21.2101ZM8.47584 20.5362L7.18411 20.1901L6.83799 21.4818L8.12972 21.828L8.47584 20.5362ZM8.66288 19.8382L9.009 18.5465L7.71727 18.2003L7.37115 19.4921L8.66288 19.8382ZM41.8788 28.7384L40.5871 28.3923L40.4001 29.0903L41.6918 29.4364L42.9835 29.7825L43.1706 29.0845L41.8788 28.7384ZM41.6918 29.4364L42.0379 28.1447L39.5212 27.4703L39.1751 28.7621L38.829 30.0538L41.3457 30.7281L41.6918 29.4364ZM39.1751 28.7621L40.4668 29.1082L40.6539 28.4101L39.3622 28.064L38.0704 27.7179L37.8834 28.4159L39.1751 28.7621ZM39.3622 28.064L39.016 29.3558L41.5327 30.0301L41.8788 28.7384L42.225 27.4466L39.7083 26.7723L39.3622 28.064ZM29.2778 7.93614L28.9317 9.22787L29.6288 9.41466L29.9749 8.12293L30.321 6.83119L29.6239 6.64441L29.2778 7.93614ZM29.9749 8.12293L28.6832 7.77681L28.1274 9.8511L29.4191 10.1972L30.7108 10.5433L31.2666 8.46904L29.9749 8.12293ZM29.4191 10.1972L29.7652 8.90548L29.0681 8.7187L28.722 10.0104L28.3759 11.3022L29.073 11.4889L29.4191 10.1972ZM28.722 10.0104L30.0138 10.3565L30.5696 8.28226L29.2778 7.93614L27.9861 7.59002L27.4303 9.66431L28.722 10.0104ZM21.631 39.2627L20.3393 38.9166L19.783 40.9928L21.0747 41.3389L22.3665 41.685L22.9228 39.6088L21.631 39.2627ZM21.0747 41.3389L21.4208 40.0472L20.7238 39.8604L20.3776 41.1521L20.0315 42.4438L20.7286 42.6306L21.0747 41.3389ZM20.3776 41.1521L21.6694 41.4982L22.2257 39.422L20.9339 39.0759L19.6422 38.7298L19.0859 40.806L20.3776 41.1521ZM20.9339 39.0759L20.5878 40.3677L21.2849 40.5544L21.631 39.2627L21.9772 37.971L21.2801 37.7842L20.9339 39.0759ZM11.1777 20.512L9.88595 20.1659L9.69891 20.8639L10.9906 21.2101L12.2824 21.5562L12.4694 20.8581L11.1777 20.512ZM10.9906 21.2101L11.3368 19.9183L8.82196 19.2445L8.47584 20.5362L8.12972 21.828L10.6445 22.5018L10.9906 21.2101ZM8.47584 20.5362L9.76758 20.8823L9.95461 20.1843L8.66288 19.8382L7.37115 19.4921L7.18411 20.1901L8.47584 20.5362ZM8.66288 19.8382L8.31676 21.1299L10.8316 21.8038L11.1777 20.512L11.5238 19.2203L9.009 18.5465L8.66288 19.8382Z" fill="#E3E3E3"/>
</g>
<g clip-path="url(#clip5_2953_1267)">
<path d="M42.3623 24.2756L42.3623 24.9973L39.7578 24.9973L39.7578 24.2756L42.3623 24.2756ZM24.8057 7.44263L25.5273 7.44263L25.5273 21.0637L24.8057 21.0637L24.8057 7.44263ZM25.5273 28.2092L25.5273 41.8303L24.8057 41.8303L24.8057 28.2092L25.5273 28.2092ZM10.5791 24.2756L10.5791 24.9973L7.97461 24.9973L7.97461 24.2756L10.5791 24.2756Z" fill="#E3E3E3"/>
<path d="M42.3623 24.2756L43.6996 24.2756L43.6996 22.9383L42.3623 22.9383L42.3623 24.2756ZM42.3623 24.9973L42.3623 26.3346L43.6996 26.3346L43.6996 24.9973L42.3623 24.9973ZM39.7578 24.9973L38.4205 24.9973L38.4205 26.3346L39.7578 26.3346L39.7578 24.9973ZM39.7578 24.2756L39.7578 22.9383L38.4205 22.9383L38.4205 24.2756L39.7578 24.2756ZM24.8057 7.44263L24.8057 6.10533L23.4684 6.10533L23.4684 7.44263L24.8057 7.44263ZM25.5273 7.44263L26.8646 7.44263L26.8646 6.10533L25.5273 6.10533L25.5273 7.44263ZM25.5273 21.0637L25.5273 22.401L26.8646 22.401L26.8646 21.0637L25.5273 21.0637ZM24.8057 21.0637L23.4684 21.0637L23.4684 22.401L24.8057 22.401L24.8057 21.0637ZM25.5273 28.2092L26.8646 28.2092L26.8646 26.8719L25.5273 26.8719L25.5273 28.2092ZM25.5273 41.8303L25.5273 43.1676L26.8646 43.1676L26.8646 41.8303L25.5273 41.8303ZM24.8057 41.8303L23.4684 41.8303L23.4684 43.1676L24.8057 43.1676L24.8057 41.8303ZM24.8057 28.2092L24.8057 26.8719L23.4684 26.8719L23.4684 28.2092L24.8057 28.2092ZM10.5791 24.2756L11.9164 24.2756L11.9164 22.9383L10.5791 22.9383L10.5791 24.2756ZM10.5791 24.9973L10.5791 26.3346L11.9164 26.3346L11.9164 24.9973L10.5791 24.9973ZM7.97461 24.9973L6.63731 24.9973L6.63731 26.3346L7.97461 26.3346L7.97461 24.9973ZM7.97461 24.2756L7.97461 22.9383L6.63731 22.9383L6.63731 24.2756L7.97461 24.2756ZM42.3623 24.2756L41.025 24.2756L41.025 24.9973L42.3623 24.9973L43.6996 24.9973L43.6996 24.2756L42.3623 24.2756ZM42.3623 24.9973L42.3623 23.66L39.7578 23.66L39.7578 24.9973L39.7578 26.3346L42.3623 26.3346L42.3623 24.9973ZM39.7578 24.9973L41.0951 24.9973L41.0951 24.2756L39.7578 24.2756L38.4205 24.2756L38.4205 24.9973L39.7578 24.9973ZM39.7578 24.2756L39.7578 25.6129L42.3623 25.6129L42.3623 24.2756L42.3623 22.9383L39.7578 22.9383L39.7578 24.2756ZM24.8057 7.44263L24.8057 8.77993L25.5273 8.77993L25.5273 7.44263L25.5273 6.10533L24.8057 6.10533L24.8057 7.44263ZM25.5273 7.44263L24.19 7.44263L24.19 21.0637L25.5273 21.0637L26.8646 21.0637L26.8646 7.44263L25.5273 7.44263ZM25.5273 21.0637L25.5273 19.7264L24.8057 19.7264L24.8057 21.0637L24.8057 22.401L25.5273 22.401L25.5273 21.0637ZM24.8057 21.0637L26.143 21.0637L26.143 7.44263L24.8057 7.44263L23.4684 7.44263L23.4684 21.0637L24.8057 21.0637ZM25.5273 28.2092L24.19 28.2092L24.19 41.8303L25.5273 41.8303L26.8646 41.8303L26.8646 28.2092L25.5273 28.2092ZM25.5273 41.8303L25.5273 40.493L24.8057 40.493L24.8057 41.8303L24.8057 43.1676L25.5273 43.1676L25.5273 41.8303ZM24.8057 41.8303L26.143 41.8303L26.143 28.2092L24.8057 28.2092L23.4684 28.2092L23.4684 41.8303L24.8057 41.8303ZM24.8057 28.2092L24.8057 29.5465L25.5273 29.5465L25.5273 28.2092L25.5273 26.8719L24.8057 26.8719L24.8057 28.2092ZM10.5791 24.2756L9.2418 24.2756L9.2418 24.9973L10.5791 24.9973L11.9164 24.9973L11.9164 24.2756L10.5791 24.2756ZM10.5791 24.9973L10.5791 23.66L7.97461 23.66L7.97461 24.9973L7.97461 26.3346L10.5791 26.3346L10.5791 24.9973ZM7.97461 24.9973L9.31191 24.9973L9.31191 24.2756L7.97461 24.2756L6.63731 24.2756L6.63731 24.9973L7.97461 24.9973ZM7.97461 24.2756L7.97461 25.6129L10.5791 25.6129L10.5791 24.2756L10.5791 22.9383L7.97461 22.9383L7.97461 24.2756Z" fill="#E3E3E3"/>
</g>
<defs>
<clipPath id="clip0_2953_1267">
<rect width="34.3877" height="34.3877" fill="white" transform="translate(18.8789 1.14966) rotate(30)"/>
</clipPath>
<clipPath id="clip1_2953_1267">
<rect width="34.3877" height="34.3877" fill="white" transform="translate(4.10742 12.479) rotate(-15)"/>
</clipPath>
<clipPath id="clip2_2953_1267">
<rect width="34.3877" height="34.3877" fill="white" transform="translate(1.67969 18.3438) rotate(-30)"/>
</clipPath>
<clipPath id="clip3_2953_1267">
<rect width="34.3877" height="34.3877" fill="white" transform="translate(0.853516 24.637) rotate(-45)"/>
</clipPath>
<clipPath id="clip4_2953_1267">
<rect width="34.3877" height="34.3877" fill="white" transform="translate(4.10742 36.7947) rotate(-75)"/>
</clipPath>
<clipPath id="clip5_2953_1267">
<rect width="34.3877" height="34.3877" fill="white" transform="translate(7.97266 41.8308) rotate(-90)"/>
</clipPath>
</defs>
</svg>
