<svg width="50" height="50" viewBox="0 0 50 50" fill="none" xmlns="http://www.w3.org/2000/svg">
<g clip-path="url(#clip0_2953_1232)">
<path d="M25.4434 42.5916H24.7041V39.9255H25.4434V42.5916ZM42.6826 24.6189V25.3582H40.4824V24.6189H42.6826ZM9.6748 25.3582H7.47656V24.6189H9.6748V25.3582ZM25.4434 10.0515H24.7041V7.3855H25.4434V10.0515Z" fill="#E3E3E3"/>
<path d="M25.4434 42.5916V43.9607H26.8125V42.5916H25.4434ZM24.7041 42.5916H23.335V43.9607H24.7041V42.5916ZM24.7041 39.9255V38.5564H23.335V39.9255H24.7041ZM25.4434 39.9255H26.8125V38.5564H25.4434V39.9255ZM42.6826 24.6189H44.0518V23.2498H42.6826V24.6189ZM42.6826 25.3582V26.7273H44.0518V25.3582H42.6826ZM40.4824 25.3582H39.1133V26.7273H40.4824V25.3582ZM40.4824 24.6189V23.2498H39.1133V24.6189H40.4824ZM9.6748 25.3582V26.7273H11.0439V25.3582H9.6748ZM7.47656 25.3582H6.10742V26.7273H7.47656V25.3582ZM7.47656 24.6189V23.2498H6.10742V24.6189H7.47656ZM9.6748 24.6189H11.0439V23.2498H9.6748V24.6189ZM25.4434 10.0515V11.4207H26.8125V10.0515H25.4434ZM24.7041 10.0515H23.335V11.4207H24.7041V10.0515ZM24.7041 7.3855V6.01636H23.335V7.3855H24.7041ZM25.4434 7.3855H26.8125V6.01636H25.4434V7.3855ZM25.4434 42.5916V41.2224H24.7041V42.5916V43.9607H25.4434V42.5916ZM24.7041 42.5916H26.0732V39.9255H24.7041H23.335V42.5916H24.7041ZM24.7041 39.9255V41.2947H25.4434V39.9255V38.5564H24.7041V39.9255ZM25.4434 39.9255H24.0742V42.5916H25.4434H26.8125V39.9255H25.4434ZM42.6826 24.6189H41.3135V25.3582H42.6826H44.0518V24.6189H42.6826ZM42.6826 25.3582V23.989H40.4824V25.3582V26.7273H42.6826V25.3582ZM40.4824 25.3582H41.8516V24.6189H40.4824H39.1133V25.3582H40.4824ZM40.4824 24.6189V25.988H42.6826V24.6189V23.2498H40.4824V24.6189ZM9.6748 25.3582V23.989H7.47656V25.3582V26.7273H9.6748V25.3582ZM7.47656 25.3582H8.8457V24.6189H7.47656H6.10742V25.3582H7.47656ZM7.47656 24.6189V25.988H9.6748V24.6189V23.2498H7.47656V24.6189ZM9.6748 24.6189H8.30566V25.3582H9.6748H11.0439V24.6189H9.6748ZM25.4434 10.0515V8.68237H24.7041V10.0515V11.4207H25.4434V10.0515ZM24.7041 10.0515H26.0732V7.3855H24.7041H23.335V10.0515H24.7041ZM24.7041 7.3855V8.75464H25.4434V7.3855V6.01636H24.7041V7.3855ZM25.4434 7.3855H24.0742V10.0515H25.4434H26.8125V7.3855H25.4434Z" fill="#E3E3E3"/>
</g>
<g clip-path="url(#clip1_2953_1232)">
<path d="M37.7971 37.1746L37.2743 37.6973L35.3885 35.8115L35.9112 35.2887L37.7971 37.1746ZM37.2743 12.2801L37.7971 12.8029L36.2413 14.3586L35.7186 13.8359L37.2743 12.2801ZM14.457 36.1429L12.9026 37.6973L12.3799 37.1746L13.9343 35.6202L14.457 36.1429ZM14.7871 14.1646L14.2644 14.6873L12.3792 12.8022L12.9019 12.2795L14.7871 14.1646Z" fill="#E3E3E3"/>
<path d="M37.7971 37.1746L38.7652 38.1427L39.7333 37.1746L38.7652 36.2065L37.7971 37.1746ZM37.2743 37.6973L36.3062 38.6654L37.2743 39.6336L38.2425 38.6654L37.2743 37.6973ZM35.3885 35.8115L34.4204 34.8433L33.4522 35.8115L34.4204 36.7796L35.3885 35.8115ZM35.9112 35.2887L36.8794 34.3206L35.9112 33.3525L34.9431 34.3206L35.9112 35.2887ZM37.2743 12.2801L38.2425 11.312L37.2743 10.3439L36.3062 11.312L37.2743 12.2801ZM37.7971 12.8029L38.7652 13.771L39.7333 12.8029L38.7652 11.8347L37.7971 12.8029ZM36.2413 14.3586L35.2732 15.3268L36.2413 16.2949L37.2094 15.3268L36.2413 14.3586ZM35.7186 13.8359L34.7504 12.8678L33.7823 13.8359L34.7504 14.804L35.7186 13.8359ZM14.457 36.1429L15.4252 37.1111L16.3933 36.1429L15.4252 35.1748L14.457 36.1429ZM12.9026 37.6973L11.9345 38.6654L12.9026 39.6336L13.8708 38.6654L12.9026 37.6973ZM12.3799 37.1746L11.4118 36.2065L10.4436 37.1746L11.4118 38.1427L12.3799 37.1746ZM13.9343 35.6202L14.9024 34.6521L13.9343 33.6839L12.9662 34.6521L13.9343 35.6202ZM14.7871 14.1646L15.7552 15.1327L16.7234 14.1646L15.7552 13.1965L14.7871 14.1646ZM14.2644 14.6873L13.2962 15.6555L14.2644 16.6236L15.2325 15.6555L14.2644 14.6873ZM12.3792 12.8022L11.4111 11.8341L10.443 12.8022L11.4111 13.7703L12.3792 12.8022ZM12.9019 12.2795L13.8701 11.3113L12.9019 10.3432L11.9338 11.3113L12.9019 12.2795ZM37.7971 37.1746L36.8289 36.2065L36.3062 36.7292L37.2743 37.6973L38.2425 38.6654L38.7652 38.1427L37.7971 37.1746ZM37.2743 37.6973L38.2425 36.7292L36.3566 34.8433L35.3885 35.8115L34.4204 36.7796L36.3062 38.6654L37.2743 37.6973ZM35.3885 35.8115L36.3566 36.7796L36.8794 36.2569L35.9112 35.2887L34.9431 34.3206L34.4204 34.8433L35.3885 35.8115ZM35.9112 35.2887L34.9431 36.2569L36.8289 38.1427L37.7971 37.1746L38.7652 36.2065L36.8794 34.3206L35.9112 35.2887ZM37.2743 12.2801L36.3062 13.2483L36.8289 13.771L37.7971 12.8029L38.7652 11.8347L38.2425 11.312L37.2743 12.2801ZM37.7971 12.8029L36.8289 11.8347L35.2732 13.3905L36.2413 14.3586L37.2094 15.3268L38.7652 13.771L37.7971 12.8029ZM36.2413 14.3586L37.2094 13.3905L36.6867 12.8678L35.7186 13.8359L34.7504 14.804L35.2732 15.3268L36.2413 14.3586ZM35.7186 13.8359L36.6867 14.804L38.2425 13.2483L37.2743 12.2801L36.3062 11.312L34.7504 12.8678L35.7186 13.8359ZM14.457 36.1429L13.4889 35.1748L11.9345 36.7292L12.9026 37.6973L13.8708 38.6654L15.4252 37.1111L14.457 36.1429ZM12.9026 37.6973L13.8708 36.7292L13.348 36.2065L12.3799 37.1746L11.4118 38.1427L11.9345 38.6654L12.9026 37.6973ZM12.3799 37.1746L13.348 38.1427L14.9024 36.5883L13.9343 35.6202L12.9662 34.6521L11.4118 36.2065L12.3799 37.1746ZM13.9343 35.6202L12.9662 36.5883L13.4889 37.1111L14.457 36.1429L15.4252 35.1748L14.9024 34.6521L13.9343 35.6202ZM14.7871 14.1646L13.819 13.1965L13.2962 13.7192L14.2644 14.6873L15.2325 15.6555L15.7552 15.1327L14.7871 14.1646ZM14.2644 14.6873L15.2325 13.7192L13.3473 11.8341L12.3792 12.8022L11.4111 13.7703L13.2962 15.6555L14.2644 14.6873ZM12.3792 12.8022L13.3473 13.7703L13.8701 13.2476L12.9019 12.2795L11.9338 11.3113L11.4111 11.8341L12.3792 12.8022ZM12.9019 12.2795L11.9338 13.2476L13.819 15.1327L14.7871 14.1646L15.7552 13.1965L13.8701 11.3113L12.9019 12.2795Z" fill="#E3E3E3"/>
</g>
<defs>
<clipPath id="clip0_2953_1232">
<rect width="35.2065" height="35.2065" fill="white" transform="translate(7.48047 7.38525)"/>
</clipPath>
<clipPath id="clip1_2953_1232">
<rect width="35.2065" height="35.2065" fill="white" transform="translate(0.1875 24.9888) rotate(-45)"/>
</clipPath>
</defs>
</svg>
