<svg width="32" height="44" viewBox="0 0 32 44" fill="none" xmlns="http://www.w3.org/2000/svg">
<path d="M17.2002 38H14.7998V32.8164C15.194 32.8597 15.5943 32.8838 16 32.8838C16.4056 32.8838 16.8061 32.8596 17.2002 32.8164V38ZM14.7998 25.3936C15.1753 25.5264 15.579 25.5996 16 25.5996C16.4208 25.5996 16.8249 25.5272 17.2002 25.3945V30.3984C16.8081 30.454 16.4074 30.4844 16 30.4844C15.5925 30.4843 15.192 30.454 14.7998 30.3984V25.3936ZM24.3984 20.7998C24.454 21.192 24.4844 21.5925 24.4844 22C24.4844 22.4074 24.454 22.8081 24.3984 23.2002H19.3945C19.5272 22.8249 19.5996 22.4208 19.5996 22C19.5996 21.5791 19.5273 21.1753 19.3945 20.7998H24.3984ZM32 20.7998V23.2002H26.8174C26.8606 22.8062 26.8838 22.4055 26.8838 22C26.8838 21.5943 26.8606 21.194 26.8174 20.7998H32ZM12.6064 20.7998C12.4737 21.1753 12.4004 21.5791 12.4004 22C12.4004 22.4208 12.4737 22.8249 12.6064 23.2002H7.60254C7.547 22.8081 7.51565 22.4074 7.51562 22C7.51564 21.5925 7.54697 21.192 7.60254 20.7998H12.6064ZM5.18262 20.7998C5.13936 21.194 5.11525 21.5943 5.11523 22C5.11525 22.4056 5.13938 22.8062 5.18262 23.2002H0V20.7998H5.18262ZM16 13.5156C16.4073 13.5156 16.8082 13.5461 17.2002 13.6016V18.6045C16.8249 18.4718 16.4207 18.3994 16 18.3994C15.5791 18.3995 15.1752 18.4726 14.7998 18.6055V13.6016C15.1919 13.546 15.5925 13.5157 16 13.5156ZM17.2002 11.1826C16.8062 11.1394 16.4056 11.1152 16 11.1152C15.5943 11.1153 15.194 11.1394 14.7998 11.1826V6H17.2002V11.1826Z" fill="#E3E3E3"/>
</svg>
