<svg width="38" height="44" viewBox="0 0 38 44" fill="none" xmlns="http://www.w3.org/2000/svg">
<g clip-path="url(#clip0_2953_1316)">
<path d="M18.9131 40.5264H18.1348V30.9961H18.9131V40.5264ZM37.0508 21.6113V22.3887H27.5693V21.6113H37.0508ZM9.6748 22.3887H-0.00195312V21.6113H9.6748V22.3887ZM18.9131 13.1016H18.1348V3.47363H18.9131V13.1016Z" fill="#E3E3E3"/>
<path d="M18.9131 40.5264V41.9673H20.354V40.5264H18.9131ZM18.1348 40.5264H16.6938V41.9673H18.1348V40.5264ZM18.1348 30.9961V29.5552H16.6938V30.9961H18.1348ZM18.9131 30.9961H20.354V29.5552H18.9131V30.9961ZM37.0508 21.6113H38.4917V20.1704H37.0508V21.6113ZM37.0508 22.3887V23.8296H38.4917V22.3887H37.0508ZM27.5693 22.3887H26.1284V23.8296H27.5693V22.3887ZM27.5693 21.6113V20.1704H26.1284V21.6113H27.5693ZM9.6748 22.3887V23.8296H11.1157V22.3887H9.6748ZM-0.00195312 22.3887H-1.44289V23.8296H-0.00195312V22.3887ZM-0.00195312 21.6113V20.1704H-1.44289V21.6113H-0.00195312ZM9.6748 21.6113H11.1157V20.1704H9.6748V21.6113ZM18.9131 13.1016V14.5425H20.354V13.1016H18.9131ZM18.1348 13.1016H16.6938V14.5425H18.1348V13.1016ZM18.1348 3.47363V2.0327H16.6938V3.47363H18.1348ZM18.9131 3.47363H20.354V2.0327H18.9131V3.47363ZM18.9131 40.5264V39.0854H18.1348V40.5264V41.9673H18.9131V40.5264ZM18.1348 40.5264H19.5757V30.9961H18.1348H16.6938V40.5264H18.1348ZM18.1348 30.9961V32.437H18.9131V30.9961V29.5552H18.1348V30.9961ZM18.9131 30.9961H17.4722V40.5264H18.9131H20.354V30.9961H18.9131ZM37.0508 21.6113H35.6098V22.3887H37.0508H38.4917V21.6113H37.0508ZM37.0508 22.3887V20.9477H27.5693V22.3887V23.8296H37.0508V22.3887ZM27.5693 22.3887H29.0103V21.6113H27.5693H26.1284V22.3887H27.5693ZM27.5693 21.6113V23.0523H37.0508V21.6113V20.1704H27.5693V21.6113ZM9.6748 22.3887V20.9477H-0.00195312V22.3887V23.8296H9.6748V22.3887ZM-0.00195312 22.3887H1.43898V21.6113H-0.00195312H-1.44289V22.3887H-0.00195312ZM-0.00195312 21.6113V23.0523H9.6748V21.6113V20.1704H-0.00195312V21.6113ZM9.6748 21.6113H8.23387V22.3887H9.6748H11.1157V21.6113H9.6748ZM18.9131 13.1016V11.6606H18.1348V13.1016V14.5425H18.9131V13.1016ZM18.1348 13.1016H19.5757V3.47363H18.1348H16.6938V13.1016H18.1348ZM18.1348 3.47363V4.91457H18.9131V3.47363V2.0327H18.1348V3.47363ZM18.9131 3.47363H17.4722V13.1016H18.9131H20.354V3.47363H18.9131Z" fill="#E3E3E3"/>
<path fill-rule="evenodd" clip-rule="evenodd" d="M27.568 13.4904H9.67383V12.7124H27.568V13.4904Z" fill="#E3E3E3" stroke="#E3E3E3" stroke-width="2.88187"/>
<path fill-rule="evenodd" clip-rule="evenodd" d="M27.568 31.6296H9.67383V30.8516H27.568V31.6296Z" fill="#E3E3E3" stroke="#E3E3E3" stroke-width="2.88187"/>
</g>
<defs>
<clipPath id="clip0_2953_1316">
<rect width="37.0526" height="37.0526" fill="white" transform="translate(0 3.47363)"/>
</clipPath>
</defs>
</svg>
