<svg width="32" height="44" viewBox="0 0 32 44" fill="none" xmlns="http://www.w3.org/2000/svg">
<path d="M17.002 38H15.002V31.5801C15.2 31.5918 15.3996 31.5996 15.6006 31.5996C16.0763 31.5996 16.5439 31.5642 17.002 31.5V38ZM32 21V23L25.501 22.999C25.565 22.5418 25.6006 22.0745 25.6006 21.5996C25.6006 21.3979 25.5928 21.1977 25.5811 20.999L32 21ZM5.62012 20.999C5.60833 21.1977 5.6006 21.3979 5.60059 21.5996C5.60059 22.0745 5.63617 22.5418 5.7002 22.999H0V20.999H5.62012ZM17.002 11.6992C16.544 11.635 16.0763 11.6006 15.6006 11.6006C15.3996 11.6006 15.2 11.6074 15.002 11.6191V6H17.002V11.6992Z" fill="#E3E3E3"/>
</svg>
