<svg width="32" height="44" viewBox="0 0 32 44" fill="none" xmlns="http://www.w3.org/2000/svg">
<path d="M16 6C24.8366 6 32 13.1634 32 22C32 30.8366 24.8366 38 16 38C7.16344 38 0 30.8366 0 22C1.61064e-07 13.1634 7.16344 6 16 6ZM16 8.28613C8.42581 8.28613 2.28613 14.4258 2.28613 22C2.28613 29.5742 8.42581 35.7139 16 35.7139C23.5742 35.7139 29.7139 29.5742 29.7139 22C29.7139 14.4258 23.5742 8.28613 16 8.28613ZM16.0264 11.333C21.9172 11.3332 26.6923 16.1091 26.6924 22C26.6924 27.8909 21.9173 32.6668 16.0264 32.667C10.1353 32.667 5.35938 27.891 5.35938 22C5.35941 16.109 10.1354 11.333 16.0264 11.333ZM16.0264 13.6191C11.3977 13.6191 7.64554 17.3714 7.64551 22C7.64551 26.6287 11.3977 30.3809 16.0264 30.3809C20.6549 30.3807 24.4072 26.6286 24.4072 22C24.4072 17.3715 20.6549 13.6193 16.0264 13.6191Z" fill="#E3E3E3"/>
</svg>
