<svg xmlns="http://www.w3.org/2000/svg" version="1.1" xmlns:xlink="http://www.w3.org/1999/xlink" width="80" height="80"><svg width="80" height="80" viewBox="0 0 80 80" fill="none" xmlns="http://www.w3.org/2000/svg">
<rect x="26.9883" y="52.5783" width="26.0241" height="8.07229" fill="white"></rect>
<path d="M79.8378 18.7406C79.7785 16.1092 80.1241 13.4892 79.9509 10.8547C79.9023 9.72672 80.3626 7.77833 78.5634 8.1706C75.2711 8.54456 72.0715 10.1098 69.9161 12.6665C67.94 14.9118 67.2246 17.6249 66.8623 20.5203C66.6633 21.73 66.4606 22.9099 66.4013 24.1287C66.3633 25.9061 66.4613 27.6835 66.3079 29.4595C66.2509 30.9522 66.396 32.6015 66.5266 34.0675C65.9905 29.2938 62.8121 24.0417 58.3381 22.1566C57.2612 21.7544 55.0967 21.4507 53.9993 21.3118C53.7122 21.2751 53.1562 21.4636 53.1608 21.7544C53.1942 23.7761 53.3059 31.5124 53.274 34.0088C53.2884 34.994 52.7978 35.816 52.1014 36.4753C51.0875 37.5621 50.1047 38.5497 49.0506 39.5677C48.4893 39.9982 47.3152 41.4902 46.6735 41.4635C46.3157 40.9995 46.6332 40.0501 46.6005 39.451C46.7532 37.0538 46.7008 34.6849 46.754 32.2802C46.754 31.3621 46.8808 30.3569 46.8793 29.4243C46.9081 27.0944 44.3032 28.6917 42.103 26.293C41.5759 25.7893 41.1476 25.2391 40.8058 24.5881C40.5271 24.1508 40.0798 22.771 39.6203 23.8196C39.075 25.2849 38.3201 26.77 36.9136 27.5752C33.6099 29.8036 33.4018 26.7036 33.4246 31.4781C33.4231 34.024 33.3737 36.5333 33.5309 39.0717C33.477 39.5906 34.0435 41.4398 33.0251 40.9376C31.6649 40.1279 30.5963 38.9748 29.5422 37.7682C28.4455 36.5372 27.0815 35.3291 27.0322 33.5547C26.7428 30.705 26.7504 27.7454 26.635 24.8895C26.4907 24.0081 26.9479 22.1459 26.174 21.6537C25.2489 21.3995 24.0961 21.9742 23.171 22.2169C17.8829 23.8455 14.7957 28.3078 13.8964 33.644C13.4195 35.1985 13.5387 29.4701 13.5213 29.1954C13.5213 27.0908 13.801 26.388 13.801 24.9825C13.801 23.5771 13.4501 24.1627 13.7309 21.2293C13.5532 15.5009 9.39433 9.54585 3.74011 8.35148C2.97989 8.23089 1.64323 8.08665 0.828323 8.0027C0.54884 7.9737 0.111388 8.18129 0.12278 8.46366C0.15088 9.16273 -0.0716434 28.5284 0.587573 37.0141C0.806299 38.7053 1.47767 40.2897 2.28498 41.7733C2.91306 42.9097 3.93682 43.7393 4.76387 44.72C6.19547 46.7851 8.58095 47.7025 10.9163 48.3252C11.5922 48.4908 12.1876 48.5893 12.5005 48.6534C12.6069 48.677 12.5583 48.677 12.3821 48.658C9.79229 48.2855 2.06473 48.2283 0.315684 48.2199C0.125058 48.2191 -0.0222781 48.387 0.0027843 48.5763C0.109109 49.3769 0.450109 51.4184 1.36754 53.6354C3.3657 58.4633 7.38707 61.1527 12.5089 61.6373C15.3888 61.9525 18.2854 62.1021 21.1828 62.0586C24.2252 62.0181 27.3557 61.5618 30.3001 62.5333C33.9122 63.6033 36.9644 65.7554 38.6429 69.1699C38.9816 69.9804 39.5512 70.6115 39.8853 70.9443C40.0008 71.0595 40.3471 71.0152 40.4671 70.9053C40.8309 70.5718 41.4909 69.956 41.8554 68.9913C46.8527 59.866 56.2442 61.5129 65.0753 62.1509C65.8917 62.186 66.6299 61.922 67.4486 61.8022C69.0708 61.664 71.4351 61.4984 72.9548 60.8222C76.0648 59.3814 78.6591 56.5454 79.6213 53.2225C79.8287 52.3876 79.891 49.8722 79.9077 48.8808C79.9115 48.6579 79.4778 48.4847 79.256 48.4908C77.7098 48.532 72.4034 48.6763 70.2769 48.7694C69.9359 48.7602 65.6768 48.935 67.577 48.6602C73.0945 48.0444 74.0081 46.4989 76.5075 43.6782C78.1662 41.668 79.1717 39.0602 79.3844 36.4776C79.4163 33.7691 79.6001 31.1026 79.7489 28.3925C79.7391 25.1719 79.9023 21.9536 79.8393 18.7391L79.8378 18.7406ZM34.3359 59.7805C34.0929 59.6889 33.7671 59.6195 33.4269 59.6141C32.8345 59.6019 32.2193 59.7324 31.6444 59.5477C31.115 59.3722 30.7247 58.9914 30.2728 58.5915C29.7336 58.1198 29.3022 57.578 29.0159 56.9033C28.8328 56.4981 28.6529 56.0631 28.5101 55.6433C28.3331 55.119 28.3354 54.8015 28.9885 54.8916C29.3941 54.9389 29.8315 55.0625 30.2318 55.1709C30.869 55.3388 31.3938 55.5411 31.9588 55.9234C32.3089 56.1539 32.6841 56.4141 33.0289 56.6606C33.5119 56.9995 33.9106 57.3681 34.1605 57.9176C34.3283 58.2648 34.4666 58.635 34.6093 58.9967C34.7134 59.2638 34.8714 59.6645 34.8957 59.8774C34.9184 60.1148 34.7088 59.9087 34.3352 59.7805H34.3359ZM45.0391 59.8774C45.0626 59.6645 45.2798 58.8662 45.3839 58.5983C45.5267 58.2366 45.791 57.7306 45.791 57.7306C46.0408 57.1811 46.4304 56.8682 46.9134 56.5294C47.2582 56.2829 47.5772 56.0249 47.9273 55.7944C48.4931 55.4128 49.0605 55.132 49.6976 54.9641C50.0979 54.8557 50.328 54.8397 50.7336 54.7931C51.3867 54.7031 51.6016 55.119 51.4247 55.6433C51.2819 56.0623 51.1019 56.4981 50.9189 56.9033C50.3401 57.9382 50.4313 57.7787 49.9126 58.2458C49.4637 58.6495 49.1911 59.1929 48.6625 59.3684C48.0883 59.5531 47.7709 59.5844 47.1785 59.5638C46.9932 59.5577 46.5588 59.5371 45.9474 59.7019C45.9474 59.7019 45.0163 60.1155 45.0391 59.8774Z" fill="black"></path>
</svg><style>@media (prefers-color-scheme: light) { :root { filter: none; } }
@media (prefers-color-scheme: dark) { :root { filter: invert(100%); } }
</style></svg>