<svg width="20" height="20" viewBox="0 0 20 20" fill="none" xmlns="http://www.w3.org/2000/svg">
<path d="M9.9998 0.0371094C4.47711 0.0371094 0 4.51422 0 10.0369C0 14.7264 3.22874 18.6615 7.58425 19.7423V13.0928H5.52229V10.0369H7.58425V8.72014C7.58425 5.3166 9.12462 3.73904 12.4662 3.73904C13.0997 3.73904 14.1929 3.86343 14.6401 3.98743V6.75737C14.4041 6.73257 13.9941 6.72018 13.4849 6.72018C11.8454 6.72018 11.2118 7.34136 11.2118 8.95613V10.0369H14.4781L13.9169 13.0928H11.2118V19.9635C16.1633 19.3655 20 15.1496 20 10.0369C19.9996 4.51422 15.5225 0.0371094 9.9998 0.0371094Z" fill="white"/>
</svg>
