<svg width="20" height="20" viewBox="0 0 20 20" fill="none" xmlns="http://www.w3.org/2000/svg">
<g clip-path="url(#clip0_2168_309)">
<path d="M10 0C12.7148 0 13.0547 0.0117188 14.125 0.0625C15.1875 0.109375 15.9141 0.28125 16.5508 0.527344C17.207 0.78125 17.7656 1.125 18.3203 1.67969C18.8789 2.23437 19.2188 2.79297 19.4648 3.45703C19.7109 4.08984 19.8828 4.82031 19.9297 5.88281C19.9766 6.94922 19.9883 7.28906 19.9883 10.0039C19.9883 12.7187 19.9766 13.0586 19.9297 14.125C19.8828 15.1875 19.7109 15.9141 19.4648 16.5508C19.2109 17.207 18.8672 17.7656 18.3125 18.3203C17.7578 18.875 17.1992 19.2188 16.543 19.4727C15.9102 19.7187 15.1797 19.8906 14.1172 19.9375C13.0508 19.9844 12.7109 19.9961 9.99609 19.9961C7.28125 19.9961 6.94141 19.9844 5.875 19.9375C4.8125 19.8906 4.08594 19.7187 3.44922 19.4727C2.79297 19.2188 2.23437 18.875 1.67969 18.3203C1.12109 17.7656 0.78125 17.207 0.523438 16.5469C0.277344 15.9141 0.105469 15.1836 0.0585938 14.1211C0.0117188 13.0547 2.74439e-09 12.7148 0 10C0 7.28516 0.0117188 6.94531 0.0585938 5.875C0.105469 4.8125 0.277344 4.08594 0.523438 3.44922C0.78125 2.79297 1.12109 2.23437 1.67969 1.67969C2.23438 1.12109 2.79297 0.78125 3.45312 0.523438C4.08594 0.277344 4.81641 0.105469 5.87891 0.0585938C6.94531 0.0117188 7.28516 0 10 0ZM10 4.86328C7.16406 4.86328 4.86328 7.16406 4.86328 10C4.86328 12.8359 7.16406 15.1367 10 15.1367C12.8359 15.1367 15.1367 12.8359 15.1367 10C15.1367 7.16406 12.8359 4.86328 10 4.86328ZM10 6.66797C11.8398 6.66797 13.332 8.16016 13.332 10C13.332 11.8398 11.8398 13.332 10 13.332C8.16016 13.332 6.66797 11.8398 6.66797 10C6.66797 8.16016 8.16016 6.66797 10 6.66797ZM15.3398 3.46094C14.6797 3.46094 14.1406 3.99609 14.1406 4.66016C14.1406 5.32031 14.6758 5.85937 15.3398 5.85938C16 5.85938 16.5391 5.32422 16.5391 4.66016C16.5391 4 16 3.46094 15.3398 3.46094Z" fill="white"/>
</g>
<defs>
<clipPath id="clip0_2168_309">
<rect width="20" height="20" fill="white"/>
</clipPath>
</defs>
</svg>
