<svg width="32" height="32" viewBox="0 0 32 32" fill="none" xmlns="http://www.w3.org/2000/svg">
<path d="M17.002 32H15.002V25.5801C15.2 25.5918 15.3996 25.5996 15.6006 25.5996C16.0763 25.5996 16.5439 25.5642 17.002 25.5V32ZM32 15V17L25.501 16.999C25.565 16.5418 25.6006 16.0745 25.6006 15.5996C25.6006 15.3979 25.5928 15.1977 25.5811 14.999L32 15ZM5.62012 14.999C5.60833 15.1977 5.6006 15.3979 5.60059 15.5996C5.60059 16.0745 5.63617 16.5418 5.7002 16.999H0V14.999H5.62012ZM17.002 5.69922C16.544 5.63498 16.0763 5.60059 15.6006 5.60059C15.3996 5.60059 15.2 5.60744 15.002 5.61914V0H17.002V5.69922Z" fill="#E3E3E3"/>
</svg>
